<!--suppress CheckTagEmptyBody, XmlUnusedNamespaceDeclaration -->
<svg xmlns:xlink="http://www.w3.org/1999/xlink" xmlns="http://www.w3.org/2000/svg" viewBox="0 0 819.533 117.504"
     width="819.533" height="117.504">
    <circle cx="5" cy="56" r="3.6" style="" stroke="#000000" fill="none" stroke-width="2.16px"></circle>
    <polygon points="32,56 20,60 20,52" style="fill:rgb(0,0,0)" stroke="#111111"></polygon>
    <path d="M9,56L26,56" style="" stroke="#000000" fill="none" stroke-width="2.16px"></path>
    <path d="M47,71L156,71A15 15 0 0 0 171 56A15 15 0 0 0 156 41L47,41A15 15 0 0 0 32 56A15 15 0 0 0 47 71Z" style=""
          stroke="#000000" fill="none" stroke-width="2.16px"></path>
    <text x="102" y="56" text-anchor="middle" fill="rgb(0,0,0)" dominant-baseline="central">aggregate-func</text>
    <polygon points="189,56 178,60 178,52" style="fill:rgb(0,0,0)" stroke="#111111"></polygon>
    <path d="M171,56L183,56" style="" stroke="#000000" fill="none" stroke-width="2.16px"></path>
    <path d="M204,71A15 15 0 0 0 219 56A15 15 0 0 0 204 41A15 15 0 0 0 189 56A15 15 0 0 0 204 71Z" style=""
          stroke="#000000" fill="none" stroke-width="2.16px"></path>
    <text x="204" y="56" text-anchor="middle" font-weight="bold" fill="rgb(0,0,0)" dominant-baseline="central">(</text>
    <polygon points="242,56 231,60 231,52" style="fill:rgb(0,0,0)" stroke="#111111"></polygon>
    <path d="M219,56L237,56" style="" stroke="#000000" fill="none" stroke-width="2.16px"></path>
    <polygon points="277,26 265,30 265,22" style="fill:rgb(0,0,0)" stroke="#111111"></polygon>
    <path d="M242,56 L 248,56 Q 254,56 254,41 L 254,41 Q 254,26 263,26 L 271,26" style="" stroke="#000000" fill="none"
          stroke-width="2.16px"></path>
    <path d="M292,41L360,41A15 15 0 0 0 376 26L376,26A15 15 0 0 0 360 11L292,11A15 15 0 0 0 277 26L277,26A15 15 0 0 0 292 41Z"
          style="" stroke="#000000" fill="none" stroke-width="2.16px"></path>
    <text x="326" y="26" text-anchor="middle" fill="rgb(0,0,0)" dominant-baseline="central">DISTINCT</text>
    <polygon points="394,26 382,30 382,22" style="fill:rgb(0,0,0)" stroke="#111111"></polygon>
    <path d="M376,26L388,26" style="" stroke="#000000" fill="none" stroke-width="2.16px"></path>
    <polygon points="428,56 417,60 417,52" style="fill:rgb(0,0,0)" stroke="#111111"></polygon>
    <path d="M394,26 L 399,26 Q 405,26 405,41 L 405,41 Q 405,56 414,56 L 422,56" style="" stroke="#000000" fill="none"
          stroke-width="2.16px"></path>
    <polygon points="464,56 453,60 453,52" style="fill:rgb(0,0,0)" stroke="#111111"></polygon>
    <path d="M428,56L458,56" style="" stroke="#000000" fill="none" stroke-width="2.16px"></path>
    <path d="M464,71L513,71L513,41L464,41Z" style="" stroke="#000000" fill="none" stroke-width="2.16px"></path>
    <text x="489" y="56" text-anchor="middle" fill="rgb(0,0,0)" dominant-baseline="central">expr</text>
    <polygon points="567,56 556,60 556,52" style="fill:rgb(0,0,0)" stroke="#111111"></polygon>
    <path d="M513,56L562,56" style="" stroke="#000000" fill="none" stroke-width="2.16px"></path>
    <path d="M582,71A15 15 0 0 0 598 56A15 15 0 0 0 582 41A15 15 0 0 0 567 56A15 15 0 0 0 582 71Z" style=""
          stroke="#000000" fill="none" stroke-width="2.16px"></path>
    <text x="582" y="56" text-anchor="middle" font-weight="bold" fill="rgb(0,0,0)" dominant-baseline="central">)</text>
    <polygon points="644,86 632,91 632,82" style="fill:rgb(0,0,0)" stroke="#111111"></polygon>
    <path d="M598,56 L 609,56 Q 621,56 621,71 L 621,71 Q 621,86 629,86 L 638,86" style="" stroke="#000000" fill="none"
          stroke-width="2.16px"></path>
    <path d="M644,101L756,101L756,71L644,71Z" style="" stroke="#000000" fill="none" stroke-width="2.16px"></path>
    <text x="700" y="86" text-anchor="middle" fill="rgb(0,0,0)" dominant-baseline="central">filter-clause</text>
    <polygon points="810,56 798,60 798,52" style="fill:rgb(0,0,0)" stroke="#111111"></polygon>
    <path d="M756,86 L 765,86 Q 774,86 774,71 L 774,71 Q 774,56 789,56 L 789,56 L 804,56" style="" stroke="#000000"
          fill="none" stroke-width="2.16px"></path>
    <circle cx="813" cy="56" r="3.6" style="" stroke="#000000" fill="none" stroke-width="2.16px"></circle>
    <polygon points="700,56 688,60 688,52" style="fill:rgb(0,0,0)" stroke="#111111"></polygon>
    <path d="M598,56L694,56" style="" stroke="#000000" fill="none" stroke-width="2.16px"></path>
    <polygon points="810,56 798,60 798,52" style="fill:rgb(0,0,0)" stroke="#111111"></polygon>
    <path d="M700,56L804,56" style="" stroke="#000000" fill="none" stroke-width="2.16px"></path>
    <polygon points="326,56 315,60 315,52" style="fill:rgb(0,0,0)" stroke="#111111"></polygon>
    <path d="M242,56L321,56" style="" stroke="#000000" fill="none" stroke-width="2.16px"></path>
    <polygon points="428,56 417,60 417,52" style="fill:rgb(0,0,0)" stroke="#111111"></polygon>
    <path d="M326,56L422,56" style="" stroke="#000000" fill="none" stroke-width="2.16px"></path>
    <path d="M489,32A15 15 0 0 0 504 17A15 15 0 0 0 489 2A15 15 0 0 0 474 17A15 15 0 0 0 489 32Z" style=""
          stroke="#000000" fill="none" stroke-width="2.16px"></path>
    <text x="489" y="17" text-anchor="middle" font-weight="bold" fill="rgb(0,0,0)" dominant-baseline="central">,</text>
    <polygon points="504,17 515,12 515,21" style="fill:rgb(0,0,0)" stroke="#111111"></polygon>
    <path d="M513,56 L 525,56 Q 536,56 536,41 L 536,32 Q 536,17 523,17 L 510,17" style="" stroke="#000000" fill="none"
          stroke-width="2.16px"></path>
    <polygon points="464,56 453,60 453,52" style="fill:rgb(0,0,0)" stroke="#111111"></polygon>
    <path d="M474,17 L 456,17 Q 441,17 441,32 L 441,41 Q 441,56 450,56 L 458,56" style="" stroke="#000000" fill="none"
          stroke-width="2.16px"></path>
    <path d="M393,101A15 15 0 0 0 408 86L408,86A15 15 0 0 0 393 71A15 15 0 0 0 378 86L378,86A15 15 0 0 0 393 101Z"
          style="" stroke="#000000" fill="none" stroke-width="2.16px"></path>
    <text x="393" y="86" text-anchor="middle" font-weight="bold" fill="rgb(0,0,0)" dominant-baseline="central">*</text>
    <polygon points="378,86 367,91 367,82" style="fill:rgb(0,0,0)" stroke="#111111"></polygon>
    <path d="M242,56 L 248,56 Q 254,56 254,71 L 254,71 Q 254,86 269,86 L 357,86 L 372,86" style="" stroke="#000000"
          fill="none" stroke-width="2.16px"></path>
    <polygon points="489,86 477,91 477,82" style="fill:rgb(0,0,0)" stroke="#111111"></polygon>
    <path d="M408,86L483,86" style="" stroke="#000000" fill="none" stroke-width="2.16px"></path>
    <path d="M489,86 L 525,86 Q 540,86 540,71 L 540,71 Q 540,56 546,56 L 552,56" style="" stroke="#000000" fill="none"
          stroke-width="2.16px"></path>
    <polygon points="393,111 382,115 382,106" style="fill:rgb(0,0,0)" stroke="#111111"></polygon>
    <path d="M326,86 L 332,86 Q 338,86 338,98 Q 338,111 353,111 L 373,111 L 388,111" style="" stroke="#000000"
          fill="none" stroke-width="2.16px"></path>
    <path d="M393,111 L 414,111 Q 429,111 429,98 Q 429,86 435,86 L 441,86" style="" stroke="#000000" fill="none"
          stroke-width="2.16px"></path>
</svg>
