<?xml version="1.0" encoding="UTF-8" standalone="no"?>
<!-- Uploaded to: SVG Repo, www.svgrepo.com, Generator: SVG Repo Mixer Tools -->

<!--suppress XmlUnusedNamespaceDeclaration -->

<svg
   width="800px"
   height="800px"
   viewBox="0 0 64 64"
   aria-hidden="true"
   role="img"
   class="iconify iconify--emojione"
   preserveAspectRatio="xMidYMid meet"
   version="1.1"
   id="svg664"
   sodipodi:docname="construction.svg"
   inkscape:version="1.2.2 (732a01da63, 2022-12-09)"
   inkscape:export-filename="construction.png"
   inkscape:export-xdpi="96"
   inkscape:export-ydpi="96"
   xmlns:inkscape="http://www.inkscape.org/namespaces/inkscape"
   xmlns:sodipodi="http://sodipodi.sourceforge.net/DTD/sodipodi-0.dtd"
   xmlns="http://www.w3.org/2000/svg"
   xmlns:svg="http://www.w3.org/2000/svg"
   xmlns:rdf="http://www.w3.org/1999/02/22-rdf-syntax-ns#"
   xmlns:cc="http://creativecommons.org/ns#"
   xmlns:dc="http://purl.org/dc/elements/1.1/">
  <title
     id="title672">Under Construction</title>
  <defs
     id="defs668" />
  <sodipodi:namedview
     id="namedview666"
     pagecolor="#505050"
     bordercolor="#eeeeee"
     borderopacity="1"
     inkscape:showpageshadow="0"
     inkscape:pageopacity="0"
     inkscape:pagecheckerboard="0"
     inkscape:deskcolor="#505050"
     showgrid="false"
     inkscape:zoom="1.005"
     inkscape:cx="400.49751"
     inkscape:cy="400.49751"
     inkscape:window-width="1920"
     inkscape:window-height="991"
     inkscape:window-x="-9"
     inkscape:window-y="-9"
     inkscape:window-maximized="1"
     inkscape:current-layer="svg664" />
  <path
     fill="#ffce31"
     d="M3.4 17.5h57.2v19.7H3.4z"
     id="path608" />
  <g
     fill="#3e4347"
     id="g616">
    <path
       d="M12.7 37.1H3.4L12 17.5h9.3z"
       id="path610" />
    <path
       d="M23.1 37.1l8.1-19.6h9.7l-8.1 19.6"
       id="path612" />
    <path
       d="M42.7 37.1l8.1-19.6h9.8l-8.1 19.6"
       id="path614" />
  </g>
  <path
     fill="#94989b"
     d="M11.4 10.9h3.8V17h-3.8z"
     id="path618" />
  <path
     fill="#d0d0d0"
     d="M12.3 10.9h1.9V17h-1.9z"
     id="path620" />
  <circle
     cx="13.2"
     cy="8.6"
     r="6.6"
     fill="#94989b"
     id="circle622" />
  <circle
     cx="13.2"
     cy="8.6"
     r="5.6"
     fill="#d0d0d0"
     id="circle624" />
  <circle
     cx="13.2"
     cy="8.6"
     r="4.7"
     fill="#ed4c5c"
     id="circle626" />
  <path
     fill="#94989b"
     d="M48.9 10.9h3.8V17h-3.8z"
     id="path628" />
  <path
     fill="#d0d0d0"
     d="M49.8 10.9h1.9V17h-1.9z"
     id="path630" />
  <circle
     cx="50.8"
     cy="8.6"
     r="6.6"
     fill="#94989b"
     id="circle632" />
  <circle
     cx="50.8"
     cy="8.6"
     r="5.6"
     fill="#d0d0d0"
     id="circle634" />
  <circle
     cx="50.8"
     cy="8.6"
     r="4.7"
     fill="#ed4c5c"
     id="circle636" />
  <path
     fill="#94989b"
     d="M11.4 37.6h3.8V62h-3.8z"
     id="path638" />
  <path
     fill="#d0d0d0"
     d="M12.3 37.6h1.9V62h-1.9z"
     id="path640" />
  <path
     d="M17 62H9.5s1.9-2.5 1.9-3.3h3.8c-.1.8 1.8 3.3 1.8 3.3"
     fill="#3e4347"
     id="path642" />
  <path
     fill="#94989b"
     d="M48.9 37.6h3.8V62h-3.8z"
     id="path644" />
  <path
     fill="#d0d0d0"
     d="M49.8 37.6h1.9V62h-1.9z"
     id="path646" />
  <path
     d="M54.5 62H47s1.9-2.5 1.9-3.3h3.8c-.1.8 1.8 3.3 1.8 3.3"
     fill="#3e4347"
     id="path648" />
  <path
     fill="#94989b"
     d="M7.9 44.2H56V48H7.9z"
     id="path650" />
  <path
     fill="#d0d0d0"
     d="M9.5 45.1h45V47h-45z"
     id="path652" />
  <g
     fill="#3e4347"
     id="g658">
    <circle
       cx="13.2"
       cy="46.1"
       r=".7"
       id="circle654" />
    <circle
       cx="50.8"
       cy="46.1"
       r=".7"
       id="circle656" />
  </g>
  <path
     d="M61.1 17H2.9c-.5 0-.9.4-.9.9v18.8c0 .5.4.9.9.9H61c.5 0 .9-.4.9-.9V17.9c.1-.5-.3-.9-.8-.9m-1 17.8c0 .5-.4.9-.9.9H4.8c-.5 0-.9-.4-.9-.9v-15c0-.5.4-.9.9-.9h54.4c.5 0 .9.4.9.9v15"
     fill="#d0d0d0"
     id="path660" />
  <path
     d="M61.1 17.5c.3 0 .5.2.5.5v18.8c0 .3-.2.5-.5.5H2.9c-.3 0-.5-.2-.5-.5V17.9c0-.3.2-.5.5-.5h58.2M4.8 36.2h54.4c.8 0 1.4-.6 1.4-1.4v-15c0-.8-.6-1.4-1.4-1.4H4.8c-.8 0-1.4.6-1.4 1.4v15c0 .8.6 1.4 1.4 1.4M61.1 17H2.9c-.5 0-.9.4-.9.9v18.8c0 .5.4.9.9.9H61c.5 0 .9-.4.9-.9V17.9c.1-.5-.3-.9-.8-.9zM4.8 35.8c-.5 0-.9-.4-.9-.9v-15c0-.5.4-.9.9-.9h54.4c.5 0 .9.4.9.9v15c0 .5-.4.9-.9.9H4.8"
     fill="#94989b"
     id="path662" />
  <metadata
     id="metadata670">
    <rdf:RDF>
      <cc:Work
         rdf:about="">
        <dc:title>Under Construction</dc:title>
      </cc:Work>
    </rdf:RDF>
  </metadata>
</svg>
