<?xml version="1.0" encoding="UTF-8" standalone="no"?>
<!-- Uploaded to: SVG Repo, www.svgrepo.com, Generator: SVG Repo Mixer Tools -->

<svg
        width="800px"
        height="800px"
        viewBox="0 0 100 100"
        version="1.1"
        id="svg888"
        sodipodi:docname="geany.svg"
        inkscape:version="1.2.2 (732a01da63, 2022-12-09)"
        inkscape:export-filename=".\geany.png"
        inkscape:export-xdpi="96"
        inkscape:export-ydpi="96"
        xmlns:inkscape="http://www.inkscape.org/namespaces/inkscape"
        xmlns:sodipodi="http://sodipodi.sourceforge.net/DTD/sodipodi-0.dtd"
        xmlns="http://www.w3.org/2000/svg"
        xmlns:rdf="http://www.w3.org/1999/02/22-rdf-syntax-ns#"
        xmlns:cc="http://creativecommons.org/ns#"
        xmlns:dc="http://purl.org/dc/elements/1.1/">
  <title
     id="title896">Geany Logo</title>
  <defs
     id="defs892" />
  <sodipodi:namedview
     id="namedview890"
     pagecolor="#505050"
     bordercolor="#eeeeee"
     borderopacity="1"
     inkscape:showpageshadow="0"
     inkscape:pageopacity="0"
     inkscape:pagecheckerboard="0"
     inkscape:deskcolor="#505050"
     showgrid="false"
     inkscape:zoom="0.96875"
     inkscape:cx="401.03226"
     inkscape:cy="400"
     inkscape:window-width="1920"
     inkscape:window-height="991"
     inkscape:window-x="-9"
     inkscape:window-y="-9"
     inkscape:window-maximized="1"
     inkscape:current-layer="svg888" />
  <path
     d="M 10,40 Q 25,50 30,60 Q 55,90 80,60 C 105,60 105,40 80,40 L 40,40 Q 29,45 13,35 z M 40,38 L 70,38 Q 55,19 40,38 z M 84,46 A 9,4 0 1 1 82,54 Q 84,49 84,46 z M 25,77 L 85,77 L 85,79 Q 77,79 69,84 L 41,84 Q 33,79 25,79 z"
     style="stroke:none;fill:#ECD92D"
     id="path880" />
  <circle
     cx="55"
     cy="24"
     r="5"
     style="fill:#ECD92D"
     id="circle882" />
  <path
     d="M 55,45 L 58,50 L 55,55 L 52,50 z M 45,45 L 47,49 L 45,53 L 43,49 z M 65,45 L 67,49 L 65,53 L 63,49 z"
     style="stroke:#000000;fill:#D22E2E"
     id="path884" />
  <path
     d="M 9,39 L 12,34 A 5,5 0 0 0 14,27 A 6,6 0 0 0 16,18 A 5,5 0 0 0 16,13  A 4,4 0 0 0 6,18 A 4,4 0 0 0 7,20 A 6,6 0 0 0 6,28 A 8,8 0 0 0 9,39 z"
     style="stroke:#AAA;fill:#CCC"
     id="path886" />
  <metadata
     id="metadata894">
    <rdf:RDF>
      <cc:Work
         rdf:about="">
        <dc:title>Geany Logo</dc:title>
      </cc:Work>
    </rdf:RDF>
  </metadata>
</svg>
