<?xml version="1.0" encoding="UTF-8"?>
<svg xmlns="http://www.w3.org/2000/svg" fill-opacity="1" color-rendering="auto" color-interpolation="auto"
     text-rendering="auto" stroke="black" stroke-linecap="square" width="678" stroke-miterlimit="10"
     shape-rendering="auto" stroke-opacity="1" fill="black" stroke-dasharray="none" font-weight="normal"
     stroke-width="1" height="271" font-family="'Dialog'" font-style="normal" stroke-linejoin="miter" font-size="12px"
     stroke-dashoffset="0" image-rendering="auto">
    <!--Generated by ySVG 2.6-->
    <defs id="genericDefs"/>
    <g>
        <defs id="defs1">
            <linearGradient x1="128.292" gradientUnits="userSpaceOnUse" x2="128.292" y1="166" y2="183"
                            id="linearGradient1" spreadMethod="pad">
                <stop stop-opacity="1" stop-color="rgb(255,230,191)" offset="0%"/>
                <stop stop-opacity="1" stop-color="rgb(255,173,51)" offset="100%"/>
            </linearGradient>
            <linearGradient x1="263.708" gradientUnits="userSpaceOnUse" x2="263.708" y1="166" y2="183"
                            id="linearGradient2" spreadMethod="pad">
                <stop stop-opacity="1" stop-color="rgb(255,230,191)" offset="0%"/>
                <stop stop-opacity="1" stop-color="rgb(255,173,51)" offset="100%"/>
            </linearGradient>
            <linearGradient x1="399.124" gradientUnits="userSpaceOnUse" x2="399.124" y1="166" y2="183"
                            id="linearGradient3" spreadMethod="pad">
                <stop stop-opacity="1" stop-color="rgb(255,230,191)" offset="0%"/>
                <stop stop-opacity="1" stop-color="rgb(255,173,51)" offset="100%"/>
            </linearGradient>
            <linearGradient x1="534.54" gradientUnits="userSpaceOnUse" x2="534.54" y1="166" y2="183"
                            id="linearGradient4" spreadMethod="pad">
                <stop stop-opacity="1" stop-color="rgb(255,230,191)" offset="0%"/>
                <stop stop-opacity="1" stop-color="rgb(255,173,51)" offset="100%"/>
            </linearGradient>
            <linearGradient x1="669.956" gradientUnits="userSpaceOnUse" x2="669.956" y1="166" y2="183"
                            id="linearGradient5" spreadMethod="pad">
                <stop stop-opacity="1" stop-color="rgb(255,230,191)" offset="0%"/>
                <stop stop-opacity="1" stop-color="rgb(255,173,51)" offset="100%"/>
            </linearGradient>
            <clipPath clipPathUnits="userSpaceOnUse" id="clipPath1">
                <path d="M0 0 L678 0 L678 271 L0 271 L0 0 Z"/>
            </clipPath>
            <clipPath clipPathUnits="userSpaceOnUse" id="clipPath2">
                <path d="M113 88 L791 88 L791 359 L113 359 L113 88 Z"/>
            </clipPath>
        </defs>
        <g fill="rgb(255,153,0)" text-rendering="geometricPrecision" shape-rendering="geometricPrecision"
           transform="matrix(1,0,0,1,-113,-88)" stroke="rgb(255,153,0)">
            <path d="M128.292 181 L233.708 181 L233.708 187 Q233.708 197 223.708 197 L138.292 197 Q128.292 197 128.292 187 Z"
                  stroke="none" clip-path="url(#clipPath2)"/>
            <path fill="url(#linearGradient1)"
                  d="M128.292 177 Q128.292 167 138.292 167 L223.708 167 Q233.708 167 233.708 177 L233.708 182 L128.292 182 Z"
                  clip-path="url(#clipPath2)" stroke="none"/>
            <path fill="none"
                  d="M130.292 177 Q130.292 169 138.292 169 L223.708 169 Q231.708 169 231.708 177 L231.708 187 Q231.708 195 223.708 195 L138.292 195 Q130.292 195 130.292 187 Z"
                  stroke-width="2" clip-path="url(#clipPath2)" stroke="rgb(255,240,217)"/>
            <path fill="none"
                  d="M130.292 177 Q130.292 169 138.292 169 L223.708 169 Q231.708 169 231.708 177 L231.708 187 Q231.708 195 223.708 195 L138.292 195 Q130.292 195 130.292 187 Z"
                  clip-path="url(#clipPath2)"/>
        </g>
        <g font-size="14px" stroke-linecap="butt" transform="matrix(1,0,0,1,-113,-88)"
           text-rendering="geometricPrecision" font-family="'Courier New'" shape-rendering="geometricPrecision"
           font-weight="bold" stroke-miterlimit="1.45">
            <text x="143.1938" xml:space="preserve" y="185.7256" clip-path="url(#clipPath2)"
                  stroke="none">Version 1</text>
        </g>
        <g fill="rgb(255,204,0)" text-rendering="geometricPrecision" shape-rendering="geometricPrecision"
           transform="matrix(1,0,0,1,-113,-88)" stroke="rgb(255,204,0)">
            <rect x="146.8" y="215.74" clip-path="url(#clipPath2)" width="68.4" rx="4" ry="4" height="30"
                  stroke="none"/>
        </g>
        <g text-rendering="geometricPrecision" stroke-miterlimit="1.45" shape-rendering="geometricPrecision"
           font-family="'Courier New'" transform="matrix(1,0,0,1,-113,-88)" stroke-linecap="butt">
            <text x="159.3965" xml:space="preserve" y="233.9334" clip-path="url(#clipPath2)" stroke="none">File A</text>
        </g>
        <g fill="rgb(255,204,0)" text-rendering="geometricPrecision" shape-rendering="geometricPrecision"
           transform="matrix(1,0,0,1,-113,-88)" stroke="rgb(255,204,0)">
            <rect x="146.8" y="264.48" clip-path="url(#clipPath2)" width="68.4" rx="4" ry="4" height="30"
                  stroke="none"/>
        </g>
        <g text-rendering="geometricPrecision" stroke-miterlimit="1.45" shape-rendering="geometricPrecision"
           font-family="'Courier New'" transform="matrix(1,0,0,1,-113,-88)" stroke-linecap="butt">
            <text x="159.3965" xml:space="preserve" y="282.6734" clip-path="url(#clipPath2)" stroke="none">File B</text>
        </g>
        <g fill="rgb(255,204,0)" text-rendering="geometricPrecision" shape-rendering="geometricPrecision"
           transform="matrix(1,0,0,1,-113,-88)" stroke="rgb(255,204,0)">
            <rect x="146.8" y="313.22" clip-path="url(#clipPath2)" width="68.4" rx="4" ry="4" height="30"
                  stroke="none"/>
        </g>
        <g text-rendering="geometricPrecision" stroke-miterlimit="1.45" shape-rendering="geometricPrecision"
           font-family="'Courier New'" transform="matrix(1,0,0,1,-113,-88)" stroke-linecap="butt">
            <text x="159.3965" xml:space="preserve" y="331.4134" clip-path="url(#clipPath2)" stroke="none">File C</text>
        </g>
        <g fill="rgb(255,153,0)" text-rendering="geometricPrecision" shape-rendering="geometricPrecision"
           transform="matrix(1,0,0,1,-113,-88)" stroke="rgb(255,153,0)">
            <path d="M263.708 181 L369.124 181 L369.124 187 Q369.124 197 359.124 197 L273.708 197 Q263.708 197 263.708 187 Z"
                  stroke="none" clip-path="url(#clipPath2)"/>
            <path fill="url(#linearGradient2)"
                  d="M263.708 177 Q263.708 167 273.708 167 L359.124 167 Q369.124 167 369.124 177 L369.124 182 L263.708 182 Z"
                  clip-path="url(#clipPath2)" stroke="none"/>
            <path fill="none"
                  d="M265.708 177 Q265.708 169 273.708 169 L359.124 169 Q367.124 169 367.124 177 L367.124 187 Q367.124 195 359.124 195 L273.708 195 Q265.708 195 265.708 187 Z"
                  stroke-width="2" clip-path="url(#clipPath2)" stroke="rgb(255,240,217)"/>
            <path fill="none"
                  d="M265.708 177 Q265.708 169 273.708 169 L359.124 169 Q367.124 169 367.124 177 L367.124 187 Q367.124 195 359.124 195 L273.708 195 Q265.708 195 265.708 187 Z"
                  clip-path="url(#clipPath2)"/>
        </g>
        <g font-size="14px" stroke-linecap="butt" transform="matrix(1,0,0,1,-113,-88)"
           text-rendering="geometricPrecision" font-family="'Courier New'" shape-rendering="geometricPrecision"
           font-weight="bold" stroke-miterlimit="1.45">
            <text x="278.6098" xml:space="preserve" y="185.7256" clip-path="url(#clipPath2)"
                  stroke="none">Version 2</text>
        </g>
        <g fill="rgb(255,204,0)" text-rendering="geometricPrecision" shape-rendering="geometricPrecision"
           transform="matrix(1,0,0,1,-113,-88)" stroke="rgb(255,204,0)">
            <rect x="282.216" y="215.74" clip-path="url(#clipPath2)" width="68.4" rx="4" ry="4" height="30"
                  stroke="none"/>
        </g>
        <g text-rendering="geometricPrecision" stroke-miterlimit="1.45" shape-rendering="geometricPrecision"
           transform="matrix(1,0,0,1,-113,-88)" stroke-linecap="butt">
            <rect x="282.216" y="215.74" clip-path="url(#clipPath2)" fill="none" width="68.4" rx="4" ry="4"
                  height="30"/>
            <text x="309.2148" xml:space="preserve" y="233.9334" clip-path="url(#clipPath2)" font-family="'Courier New'"
                  stroke="none">A1</text>
        </g>
        <g fill="silver" text-rendering="geometricPrecision" shape-rendering="geometricPrecision"
           transform="matrix(1,0,0,1,-113,-88)" stroke="silver">
            <rect x="282.216" y="264.48" clip-path="url(#clipPath2)" width="68.4" rx="4" ry="4" height="30"
                  stroke="none"/>
        </g>
        <g text-rendering="geometricPrecision" stroke-miterlimit="1.45" shape-rendering="geometricPrecision"
           font-family="'Courier New'" transform="matrix(1,0,0,1,-113,-88)" stroke-linecap="butt">
            <text x="312.8154" xml:space="preserve" y="282.6734" clip-path="url(#clipPath2)" stroke="none">B</text>
        </g>
        <g fill="rgb(255,204,0)" text-rendering="geometricPrecision" shape-rendering="geometricPrecision"
           transform="matrix(1,0,0,1,-113,-88)" stroke="rgb(255,204,0)">
            <rect x="282.216" y="313.22" clip-path="url(#clipPath2)" width="68.4" rx="4" ry="4" height="30"
                  stroke="none"/>
        </g>
        <g text-rendering="geometricPrecision" stroke-miterlimit="1.45" shape-rendering="geometricPrecision"
           transform="matrix(1,0,0,1,-113,-88)" stroke-linecap="butt">
            <rect x="282.216" y="313.22" clip-path="url(#clipPath2)" fill="none" width="68.4" rx="4" ry="4"
                  height="30"/>
            <text x="309.2148" xml:space="preserve" y="331.4134" clip-path="url(#clipPath2)" font-family="'Courier New'"
                  stroke="none">C1</text>
        </g>
        <g fill="rgb(255,153,0)" text-rendering="geometricPrecision" shape-rendering="geometricPrecision"
           transform="matrix(1,0,0,1,-113,-88)" stroke="rgb(255,153,0)">
            <path d="M399.124 181 L504.54 181 L504.54 187 Q504.54 197 494.54 197 L409.124 197 Q399.124 197 399.124 187 Z"
                  stroke="none" clip-path="url(#clipPath2)"/>
            <path fill="url(#linearGradient3)"
                  d="M399.124 177 Q399.124 167 409.124 167 L494.54 167 Q504.54 167 504.54 177 L504.54 182 L399.124 182 Z"
                  clip-path="url(#clipPath2)" stroke="none"/>
            <path fill="none"
                  d="M401.124 177 Q401.124 169 409.124 169 L494.54 169 Q502.54 169 502.54 177 L502.54 187 Q502.54 195 494.54 195 L409.124 195 Q401.124 195 401.124 187 Z"
                  stroke-width="2" clip-path="url(#clipPath2)" stroke="rgb(255,240,217)"/>
            <path fill="none"
                  d="M401.124 177 Q401.124 169 409.124 169 L494.54 169 Q502.54 169 502.54 177 L502.54 187 Q502.54 195 494.54 195 L409.124 195 Q401.124 195 401.124 187 Z"
                  clip-path="url(#clipPath2)"/>
        </g>
        <g font-size="14px" stroke-linecap="butt" transform="matrix(1,0,0,1,-113,-88)"
           text-rendering="geometricPrecision" font-family="'Courier New'" shape-rendering="geometricPrecision"
           font-weight="bold" stroke-miterlimit="1.45">
            <text x="414.0258" xml:space="preserve" y="185.7256" clip-path="url(#clipPath2)"
                  stroke="none">Version 3</text>
        </g>
        <g fill="silver" text-rendering="geometricPrecision" shape-rendering="geometricPrecision"
           transform="matrix(1,0,0,1,-113,-88)" stroke="silver">
            <rect x="417.632" y="215.74" clip-path="url(#clipPath2)" width="68.4" rx="4" ry="4" height="30"
                  stroke="none"/>
        </g>
        <g text-rendering="geometricPrecision" stroke-miterlimit="1.45" shape-rendering="geometricPrecision"
           font-family="'Courier New'" transform="matrix(1,0,0,1,-113,-88)" stroke-linecap="butt">
            <text x="444.6308" xml:space="preserve" y="233.9334" clip-path="url(#clipPath2)" stroke="none">A1</text>
        </g>
        <g fill="silver" text-rendering="geometricPrecision" shape-rendering="geometricPrecision"
           transform="matrix(1,0,0,1,-113,-88)" stroke="silver">
            <rect x="417.632" y="264.48" clip-path="url(#clipPath2)" width="68.4" rx="4" ry="4" height="30"
                  stroke="none"/>
        </g>
        <g text-rendering="geometricPrecision" stroke-miterlimit="1.45" shape-rendering="geometricPrecision"
           font-family="'Courier New'" transform="matrix(1,0,0,1,-113,-88)" stroke-linecap="butt">
            <text x="448.2314" xml:space="preserve" y="282.6734" clip-path="url(#clipPath2)" stroke="none">B</text>
        </g>
        <g fill="rgb(255,204,0)" text-rendering="geometricPrecision" shape-rendering="geometricPrecision"
           transform="matrix(1,0,0,1,-113,-88)" stroke="rgb(255,204,0)">
            <rect x="417.632" y="313.22" clip-path="url(#clipPath2)" width="68.4" rx="4" ry="4" height="30"
                  stroke="none"/>
        </g>
        <g text-rendering="geometricPrecision" stroke-miterlimit="1.45" shape-rendering="geometricPrecision"
           transform="matrix(1,0,0,1,-113,-88)" stroke-linecap="butt">
            <rect x="417.632" y="313.22" clip-path="url(#clipPath2)" fill="none" width="68.4" rx="4" ry="4"
                  height="30"/>
            <text x="444.6308" xml:space="preserve" y="331.4134" clip-path="url(#clipPath2)" font-family="'Courier New'"
                  stroke="none">C2</text>
        </g>
        <g fill="rgb(255,153,0)" text-rendering="geometricPrecision" shape-rendering="geometricPrecision"
           transform="matrix(1,0,0,1,-113,-88)" stroke="rgb(255,153,0)">
            <path d="M534.54 181 L639.956 181 L639.956 187 Q639.956 197 629.956 197 L544.54 197 Q534.54 197 534.54 187 Z"
                  stroke="none" clip-path="url(#clipPath2)"/>
            <path fill="url(#linearGradient4)"
                  d="M534.54 177 Q534.54 167 544.54 167 L629.956 167 Q639.956 167 639.956 177 L639.956 182 L534.54 182 Z"
                  clip-path="url(#clipPath2)" stroke="none"/>
            <path fill="none"
                  d="M536.54 177 Q536.54 169 544.54 169 L629.956 169 Q637.956 169 637.956 177 L637.956 187 Q637.956 195 629.956 195 L544.54 195 Q536.54 195 536.54 187 Z"
                  stroke-width="2" clip-path="url(#clipPath2)" stroke="rgb(255,240,217)"/>
            <path fill="none"
                  d="M536.54 177 Q536.54 169 544.54 169 L629.956 169 Q637.956 169 637.956 177 L637.956 187 Q637.956 195 629.956 195 L544.54 195 Q536.54 195 536.54 187 Z"
                  clip-path="url(#clipPath2)"/>
        </g>
        <g font-size="14px" stroke-linecap="butt" transform="matrix(1,0,0,1,-113,-88)"
           text-rendering="geometricPrecision" font-family="'Courier New'" shape-rendering="geometricPrecision"
           font-weight="bold" stroke-miterlimit="1.45">
            <text x="549.4418" xml:space="preserve" y="185.7256" clip-path="url(#clipPath2)"
                  stroke="none">Version 4</text>
        </g>
        <g fill="rgb(255,204,0)" text-rendering="geometricPrecision" shape-rendering="geometricPrecision"
           transform="matrix(1,0,0,1,-113,-88)" stroke="rgb(255,204,0)">
            <rect x="553.048" y="215.74" clip-path="url(#clipPath2)" width="68.4" rx="4" ry="4" height="30"
                  stroke="none"/>
        </g>
        <g text-rendering="geometricPrecision" stroke-miterlimit="1.45" shape-rendering="geometricPrecision"
           transform="matrix(1,0,0,1,-113,-88)" stroke-linecap="butt">
            <rect x="553.048" y="215.74" clip-path="url(#clipPath2)" fill="none" width="68.4" rx="4" ry="4"
                  height="30"/>
            <text x="580.0468" xml:space="preserve" y="233.9334" clip-path="url(#clipPath2)" font-family="'Courier New'"
                  stroke="none">A2</text>
        </g>
        <g fill="rgb(255,204,0)" text-rendering="geometricPrecision" shape-rendering="geometricPrecision"
           transform="matrix(1,0,0,1,-113,-88)" stroke="rgb(255,204,0)">
            <rect x="553.048" y="264.48" clip-path="url(#clipPath2)" width="68.4" rx="4" ry="4" height="30"
                  stroke="none"/>
        </g>
        <g text-rendering="geometricPrecision" stroke-miterlimit="1.45" shape-rendering="geometricPrecision"
           transform="matrix(1,0,0,1,-113,-88)" stroke-linecap="butt">
            <rect x="553.048" y="264.48" clip-path="url(#clipPath2)" fill="none" width="68.4" rx="4" ry="4"
                  height="30"/>
            <text x="580.0468" xml:space="preserve" y="282.6734" clip-path="url(#clipPath2)" font-family="'Courier New'"
                  stroke="none">B1</text>
        </g>
        <g fill="silver" text-rendering="geometricPrecision" shape-rendering="geometricPrecision"
           transform="matrix(1,0,0,1,-113,-88)" stroke="silver">
            <rect x="553.048" y="313.22" clip-path="url(#clipPath2)" width="68.4" rx="4" ry="4" height="30"
                  stroke="none"/>
        </g>
        <g text-rendering="geometricPrecision" stroke-miterlimit="1.45" shape-rendering="geometricPrecision"
           font-family="'Courier New'" transform="matrix(1,0,0,1,-113,-88)" stroke-linecap="butt">
            <text x="580.0468" xml:space="preserve" y="331.4134" clip-path="url(#clipPath2)" stroke="none">C2</text>
        </g>
        <g fill="rgb(255,153,0)" text-rendering="geometricPrecision" shape-rendering="geometricPrecision"
           transform="matrix(1,0,0,1,-113,-88)" stroke="rgb(255,153,0)">
            <path d="M669.956 181 L775.372 181 L775.372 187 Q775.372 197 765.372 197 L679.956 197 Q669.956 197 669.956 187 Z"
                  stroke="none" clip-path="url(#clipPath2)"/>
            <path fill="url(#linearGradient5)"
                  d="M669.956 177 Q669.956 167 679.956 167 L765.372 167 Q775.372 167 775.372 177 L775.372 182 L669.956 182 Z"
                  clip-path="url(#clipPath2)" stroke="none"/>
            <path fill="none"
                  d="M671.956 177 Q671.956 169 679.956 169 L765.372 169 Q773.372 169 773.372 177 L773.372 187 Q773.372 195 765.372 195 L679.956 195 Q671.956 195 671.956 187 Z"
                  stroke-width="2" clip-path="url(#clipPath2)" stroke="rgb(255,240,217)"/>
            <path fill="none"
                  d="M671.956 177 Q671.956 169 679.956 169 L765.372 169 Q773.372 169 773.372 177 L773.372 187 Q773.372 195 765.372 195 L679.956 195 Q671.956 195 671.956 187 Z"
                  clip-path="url(#clipPath2)"/>
        </g>
        <g font-size="14px" stroke-linecap="butt" transform="matrix(1,0,0,1,-113,-88)"
           text-rendering="geometricPrecision" font-family="'Courier New'" shape-rendering="geometricPrecision"
           font-weight="bold" stroke-miterlimit="1.45">
            <text x="684.8578" xml:space="preserve" y="185.7256" clip-path="url(#clipPath2)"
                  stroke="none">Version 5</text>
        </g>
        <g fill="silver" text-rendering="geometricPrecision" shape-rendering="geometricPrecision"
           transform="matrix(1,0,0,1,-113,-88)" stroke="silver">
            <rect x="688.464" y="215.74" clip-path="url(#clipPath2)" width="68.4" rx="4" ry="4" height="30"
                  stroke="none"/>
        </g>
        <g text-rendering="geometricPrecision" stroke-miterlimit="1.45" shape-rendering="geometricPrecision"
           font-family="'Courier New'" transform="matrix(1,0,0,1,-113,-88)" stroke-linecap="butt">
            <text x="715.4628" xml:space="preserve" y="233.9334" clip-path="url(#clipPath2)" stroke="none">A2</text>
        </g>
        <g fill="rgb(255,204,0)" text-rendering="geometricPrecision" shape-rendering="geometricPrecision"
           transform="matrix(1,0,0,1,-113,-88)" stroke="rgb(255,204,0)">
            <rect x="688.464" y="264.48" clip-path="url(#clipPath2)" width="68.4" rx="4" ry="4" height="30"
                  stroke="none"/>
        </g>
        <g text-rendering="geometricPrecision" stroke-miterlimit="1.45" shape-rendering="geometricPrecision"
           transform="matrix(1,0,0,1,-113,-88)" stroke-linecap="butt">
            <rect x="688.464" y="264.48" clip-path="url(#clipPath2)" fill="none" width="68.4" rx="4" ry="4"
                  height="30"/>
            <text x="715.4628" xml:space="preserve" y="282.6734" clip-path="url(#clipPath2)" font-family="'Courier New'"
                  stroke="none">B2</text>
        </g>
        <g fill="rgb(255,204,0)" text-rendering="geometricPrecision" shape-rendering="geometricPrecision"
           transform="matrix(1,0,0,1,-113,-88)" stroke="rgb(255,204,0)">
            <rect x="688.464" y="313.22" clip-path="url(#clipPath2)" width="68.4" rx="4" ry="4" height="30"
                  stroke="none"/>
        </g>
        <g text-rendering="geometricPrecision" stroke-miterlimit="1.45" shape-rendering="geometricPrecision"
           transform="matrix(1,0,0,1,-113,-88)" stroke-linecap="butt">
            <rect x="688.464" y="313.22" clip-path="url(#clipPath2)" fill="none" width="68.4" rx="4" ry="4"
                  height="30"/>
            <text x="715.4628" xml:space="preserve" y="331.4134" clip-path="url(#clipPath2)" font-family="'Courier New'"
                  stroke="none">C3</text>
            <path fill="none" d="M181 196.9933 L181 215.7451" clip-path="url(#clipPath2)"/>
            <path fill="none" d="M181 245.7333 L181 264.4851" clip-path="url(#clipPath2)"/>
            <path fill="none" d="M181 294.4733 L181 313.2251" clip-path="url(#clipPath2)"/>
            <path fill="none" d="M316.416 196.9933 L316.416 215.7451" clip-path="url(#clipPath2)"/>
            <path fill="none" d="M316.416 245.7333 L316.416 264.4851" clip-path="url(#clipPath2)"/>
            <path fill="none" d="M316.416 294.4733 L316.416 313.2251" clip-path="url(#clipPath2)"/>
            <path fill="none" d="M451.832 196.9933 L451.832 215.7451" clip-path="url(#clipPath2)"/>
            <path fill="none" d="M451.832 245.7333 L451.832 264.4851" clip-path="url(#clipPath2)"/>
            <path fill="none" d="M451.832 294.4733 L451.832 313.2251" clip-path="url(#clipPath2)"/>
            <path fill="none" d="M587.248 196.9933 L587.248 215.7451" clip-path="url(#clipPath2)"/>
            <path fill="none" d="M587.248 245.7333 L587.248 264.4851" clip-path="url(#clipPath2)"/>
            <path fill="none" d="M587.248 294.4733 L587.248 313.2251" clip-path="url(#clipPath2)"/>
            <path fill="none" d="M185.4 142.96 L707.96 142.96" clip-path="url(#clipPath2)"/>
            <path d="M715.96 142.96 L703.96 137.96 L706.96 142.96 L703.96 147.96 Z" clip-path="url(#clipPath2)"
                  stroke="none"/>
            <text x="375.0677" font-size="14px" y="116.6856" clip-path="url(#clipPath2)" font-family="'Courier New'"
                  stroke="none" font-weight="bold" xml:space="preserve">Checkins Over Time</text>
            <path fill="none" d="M722.664 196.9933 L722.664 215.7451" clip-path="url(#clipPath2)"/>
            <path fill="none" d="M722.664 245.7333 L722.664 264.4851" clip-path="url(#clipPath2)"/>
            <path fill="none" d="M722.664 294.4733 L722.664 313.2251" clip-path="url(#clipPath2)"/>
        </g>
    </g>
</svg>
