<?xml version="1.0" encoding="UTF-8" standalone="no"?>
<svg
        fill-opacity="1"
        color-rendering="auto"
        color-interpolation="auto"
        text-rendering="auto"
        stroke="black"
        stroke-linecap="square"
        width="678"
        stroke-miterlimit="10"
        shape-rendering="auto"
        stroke-opacity="1"
        fill="black"
        stroke-dasharray="none"
        font-weight="normal"
        stroke-width="1"
        height="271"
        font-family="'Dialog'"
        font-style="normal"
        stroke-linejoin="miter"
        font-size="12px"
        stroke-dashoffset="0"
        image-rendering="auto"
        version="1.1"
        id="svg1535"
        sodipodi:docname="git-snapshots.svg"
        inkscape:export-filename=".\git-snapshot.png"
        inkscape:export-xdpi="96"
        inkscape:export-ydpi="96"
        inkscape:version="1.2.2 (732a01da63, 2022-12-09)"
        xmlns:inkscape="http://www.inkscape.org/namespaces/inkscape"
        xmlns:sodipodi="http://sodipodi.sourceforge.net/DTD/sodipodi-0.dtd"
        xmlns="http://www.w3.org/2000/svg"
>
  <sodipodi:namedview
     id="namedview1537"
     pagecolor="#505050"
     bordercolor="#eeeeee"
     borderopacity="1"
     inkscape:showpageshadow="0"
     inkscape:pageopacity="0"
     inkscape:pagecheckerboard="0"
     inkscape:deskcolor="#505050"
     showgrid="false"
     inkscape:zoom="1.9247788"
     inkscape:cx="339"
     inkscape:cy="135.34023"
     inkscape:window-width="1920"
     inkscape:window-height="991"
     inkscape:window-x="-9"
     inkscape:window-y="-9"
     inkscape:window-maximized="1"
     inkscape:current-layer="svg1535" />
  <!--Generated by ySVG 2.6-->
  <defs
     id="genericDefs" />
  <g
     id="g1533">
    <defs
       id="defs1">
      <linearGradient
         x1="128.292"
         gradientUnits="userSpaceOnUse"
         x2="128.292"
         y1="166"
         y2="183"
         id="linearGradient1"
         spreadMethod="pad">
        <stop
           stop-opacity="1"
           stop-color="rgb(255,230,191)"
           offset="0%"
           id="stop1261" />
        <stop
           stop-opacity="1"
           stop-color="rgb(255,173,51)"
           offset="100%"
           id="stop1263" />
      </linearGradient>
      <linearGradient
         x1="263.708"
         gradientUnits="userSpaceOnUse"
         x2="263.708"
         y1="166"
         y2="183"
         id="linearGradient2"
         spreadMethod="pad">
        <stop
           stop-opacity="1"
           stop-color="rgb(255,230,191)"
           offset="0%"
           id="stop1266" />
        <stop
           stop-opacity="1"
           stop-color="rgb(255,173,51)"
           offset="100%"
           id="stop1268" />
      </linearGradient>
      <linearGradient
         x1="399.124"
         gradientUnits="userSpaceOnUse"
         x2="399.124"
         y1="166"
         y2="183"
         id="linearGradient3"
         spreadMethod="pad">
        <stop
           stop-opacity="1"
           stop-color="rgb(255,230,191)"
           offset="0%"
           id="stop1271" />
        <stop
           stop-opacity="1"
           stop-color="rgb(255,173,51)"
           offset="100%"
           id="stop1273" />
      </linearGradient>
      <linearGradient
         x1="534.54"
         gradientUnits="userSpaceOnUse"
         x2="534.54"
         y1="166"
         y2="183"
         id="linearGradient4"
         spreadMethod="pad">
        <stop
           stop-opacity="1"
           stop-color="rgb(255,230,191)"
           offset="0%"
           id="stop1276" />
        <stop
           stop-opacity="1"
           stop-color="rgb(255,173,51)"
           offset="100%"
           id="stop1278" />
      </linearGradient>
      <linearGradient
         x1="669.956"
         gradientUnits="userSpaceOnUse"
         x2="669.956"
         y1="166"
         y2="183"
         id="linearGradient5"
         spreadMethod="pad">
        <stop
           stop-opacity="1"
           stop-color="rgb(255,230,191)"
           offset="0%"
           id="stop1281" />
        <stop
           stop-opacity="1"
           stop-color="rgb(255,173,51)"
           offset="100%"
           id="stop1283" />
      </linearGradient>
      <clipPath
         clipPathUnits="userSpaceOnUse"
         id="clipPath1">
        <path
           d="M0 0 L678 0 L678 271 L0 271 L0 0 Z"
           id="path1286" />
      </clipPath>
      <clipPath
         clipPathUnits="userSpaceOnUse"
         id="clipPath2">
        <path
           d="M113 88 L791 88 L791 359 L113 359 L113 88 Z"
           id="path1289" />
      </clipPath>
    </defs>
    <g
       fill="rgb(255,153,0)"
       text-rendering="geometricPrecision"
       shape-rendering="geometricPrecision"
       transform="matrix(1,0,0,1,-113,-88)"
       stroke="rgb(255,153,0)"
       id="g1301">
      <path
         d="M128.292 181 L233.708 181 L233.708 187 Q233.708 197 223.708 197 L138.292 197 Q128.292 197 128.292 187 Z"
         stroke="none"
         clip-path="url(#clipPath2)"
         id="path1293" />
      <path
         fill="url(#linearGradient1)"
         d="M128.292 177 Q128.292 167 138.292 167 L223.708 167 Q233.708 167 233.708 177 L233.708 182 L128.292 182 Z"
         clip-path="url(#clipPath2)"
         stroke="none"
         id="path1295" />
      <path
         fill="none"
         d="M130.292 177 Q130.292 169 138.292 169 L223.708 169 Q231.708 169 231.708 177 L231.708 187 Q231.708 195 223.708 195 L138.292 195 Q130.292 195 130.292 187 Z"
         stroke-width="2"
         clip-path="url(#clipPath2)"
         stroke="rgb(255,240,217)"
         id="path1297" />
      <path
         fill="none"
         d="M130.292 177 Q130.292 169 138.292 169 L223.708 169 Q231.708 169 231.708 177 L231.708 187 Q231.708 195 223.708 195 L138.292 195 Q130.292 195 130.292 187 Z"
         clip-path="url(#clipPath2)"
         id="path1299" />
    </g>
    <g
       font-size="14px"
       stroke-linecap="butt"
       transform="matrix(1,0,0,1,-113,-88)"
       text-rendering="geometricPrecision"
       font-family="'Courier New'"
       shape-rendering="geometricPrecision"
       font-weight="bold"
       stroke-miterlimit="1.45"
       id="g1305">
      <text
         x="143.1938"
         xml:space="preserve"
         y="185.7256"
         clip-path="url(#clipPath2)"
         stroke="none"
         id="text1303">Version 1</text>
    </g>
    <g
       fill="rgb(255,204,0)"
       text-rendering="geometricPrecision"
       shape-rendering="geometricPrecision"
       transform="matrix(1,0,0,1,-113,-88)"
       stroke="rgb(255,204,0)"
       id="g1309">
      <rect
         x="146.8"
         y="215.74"
         clip-path="url(#clipPath2)"
         width="68.4"
         rx="4"
         ry="4"
         height="30"
         stroke="none"
         id="rect1307" />
    </g>
    <g
       text-rendering="geometricPrecision"
       stroke-miterlimit="1.45"
       shape-rendering="geometricPrecision"
       font-family="'Courier New'"
       transform="matrix(1,0,0,1,-113,-88)"
       stroke-linecap="butt"
       id="g1313">
      <text
         x="159.3965"
         xml:space="preserve"
         y="233.9334"
         clip-path="url(#clipPath2)"
         stroke="none"
         id="text1311">File A</text>
    </g>
    <g
       fill="rgb(255,204,0)"
       text-rendering="geometricPrecision"
       shape-rendering="geometricPrecision"
       transform="matrix(1,0,0,1,-113,-88)"
       stroke="rgb(255,204,0)"
       id="g1317">
      <rect
         x="146.8"
         y="264.48"
         clip-path="url(#clipPath2)"
         width="68.4"
         rx="4"
         ry="4"
         height="30"
         stroke="none"
         id="rect1315" />
    </g>
    <g
       text-rendering="geometricPrecision"
       stroke-miterlimit="1.45"
       shape-rendering="geometricPrecision"
       font-family="'Courier New'"
       transform="matrix(1,0,0,1,-113,-88)"
       stroke-linecap="butt"
       id="g1321">
      <text
         x="159.3965"
         xml:space="preserve"
         y="282.6734"
         clip-path="url(#clipPath2)"
         stroke="none"
         id="text1319">File B</text>
    </g>
    <g
       fill="rgb(255,204,0)"
       text-rendering="geometricPrecision"
       shape-rendering="geometricPrecision"
       transform="matrix(1,0,0,1,-113,-88)"
       stroke="rgb(255,204,0)"
       id="g1325">
      <rect
         x="146.8"
         y="313.22"
         clip-path="url(#clipPath2)"
         width="68.4"
         rx="4"
         ry="4"
         height="30"
         stroke="none"
         id="rect1323" />
    </g>
    <g
       text-rendering="geometricPrecision"
       stroke-miterlimit="1.45"
       shape-rendering="geometricPrecision"
       font-family="'Courier New'"
       transform="matrix(1,0,0,1,-113,-88)"
       stroke-linecap="butt"
       id="g1329">
      <text
         x="159.3965"
         xml:space="preserve"
         y="331.4134"
         clip-path="url(#clipPath2)"
         stroke="none"
         id="text1327">File C</text>
    </g>
    <g
       fill="rgb(255,153,0)"
       text-rendering="geometricPrecision"
       shape-rendering="geometricPrecision"
       transform="matrix(1,0,0,1,-113,-88)"
       stroke="rgb(255,153,0)"
       id="g1339">
      <path
         d="M263.708 181 L369.124 181 L369.124 187 Q369.124 197 359.124 197 L273.708 197 Q263.708 197 263.708 187 Z"
         stroke="none"
         clip-path="url(#clipPath2)"
         id="path1331" />
      <path
         fill="url(#linearGradient2)"
         d="M263.708 177 Q263.708 167 273.708 167 L359.124 167 Q369.124 167 369.124 177 L369.124 182 L263.708 182 Z"
         clip-path="url(#clipPath2)"
         stroke="none"
         id="path1333" />
      <path
         fill="none"
         d="M265.708 177 Q265.708 169 273.708 169 L359.124 169 Q367.124 169 367.124 177 L367.124 187 Q367.124 195 359.124 195 L273.708 195 Q265.708 195 265.708 187 Z"
         stroke-width="2"
         clip-path="url(#clipPath2)"
         stroke="rgb(255,240,217)"
         id="path1335" />
      <path
         fill="none"
         d="M265.708 177 Q265.708 169 273.708 169 L359.124 169 Q367.124 169 367.124 177 L367.124 187 Q367.124 195 359.124 195 L273.708 195 Q265.708 195 265.708 187 Z"
         clip-path="url(#clipPath2)"
         id="path1337" />
    </g>
    <g
       font-size="14px"
       stroke-linecap="butt"
       transform="matrix(1,0,0,1,-113,-88)"
       text-rendering="geometricPrecision"
       font-family="'Courier New'"
       shape-rendering="geometricPrecision"
       font-weight="bold"
       stroke-miterlimit="1.45"
       id="g1343">
      <text
         x="278.6098"
         xml:space="preserve"
         y="185.7256"
         clip-path="url(#clipPath2)"
         stroke="none"
         id="text1341">Version 2</text>
    </g>
    <g
       fill="rgb(255,204,0)"
       text-rendering="geometricPrecision"
       shape-rendering="geometricPrecision"
       transform="matrix(1,0,0,1,-113,-88)"
       stroke="rgb(255,204,0)"
       id="g1347">
      <rect
         x="282.216"
         y="215.74"
         clip-path="url(#clipPath2)"
         width="68.4"
         rx="4"
         ry="4"
         height="30"
         stroke="none"
         id="rect1345" />
    </g>
    <g
       text-rendering="geometricPrecision"
       stroke-miterlimit="1.45"
       shape-rendering="geometricPrecision"
       transform="matrix(1,0,0,1,-113,-88)"
       stroke-linecap="butt"
       id="g1353">
      <rect
         x="282.216"
         y="215.74"
         clip-path="url(#clipPath2)"
         fill="none"
         width="68.4"
         rx="4"
         ry="4"
         height="30"
         id="rect1349" />
      <text
         x="309.2148"
         xml:space="preserve"
         y="233.9334"
         clip-path="url(#clipPath2)"
         font-family="'Courier New'"
         stroke="none"
         id="text1351">A1</text>
    </g>
    <g
       fill="silver"
       text-rendering="geometricPrecision"
       shape-rendering="geometricPrecision"
       transform="matrix(1,0,0,1,-113,-88)"
       stroke="silver"
       id="g1357">
      <rect
         x="282.216"
         y="264.48"
         clip-path="url(#clipPath2)"
         width="68.4"
         rx="4"
         ry="4"
         height="30"
         stroke="none"
         id="rect1355" />
    </g>
    <g
       text-rendering="geometricPrecision"
       stroke-miterlimit="1.45"
       shape-rendering="geometricPrecision"
       font-family="'Courier New'"
       transform="matrix(1,0,0,1,-113,-88)"
       stroke-linecap="butt"
       id="g1361">
      <text
         x="312.8154"
         xml:space="preserve"
         y="282.6734"
         clip-path="url(#clipPath2)"
         stroke="none"
         id="text1359">B</text>
    </g>
    <g
       fill="rgb(255,204,0)"
       text-rendering="geometricPrecision"
       shape-rendering="geometricPrecision"
       transform="matrix(1,0,0,1,-113,-88)"
       stroke="rgb(255,204,0)"
       id="g1365">
      <rect
         x="282.216"
         y="313.22"
         clip-path="url(#clipPath2)"
         width="68.4"
         rx="4"
         ry="4"
         height="30"
         stroke="none"
         id="rect1363" />
    </g>
    <g
       text-rendering="geometricPrecision"
       stroke-miterlimit="1.45"
       shape-rendering="geometricPrecision"
       transform="matrix(1,0,0,1,-113,-88)"
       stroke-linecap="butt"
       id="g1371">
      <rect
         x="282.216"
         y="313.22"
         clip-path="url(#clipPath2)"
         fill="none"
         width="68.4"
         rx="4"
         ry="4"
         height="30"
         id="rect1367" />
      <text
         x="309.2148"
         xml:space="preserve"
         y="331.4134"
         clip-path="url(#clipPath2)"
         font-family="'Courier New'"
         stroke="none"
         id="text1369">C1</text>
    </g>
    <g
       fill="rgb(255,153,0)"
       text-rendering="geometricPrecision"
       shape-rendering="geometricPrecision"
       transform="matrix(1,0,0,1,-113,-88)"
       stroke="rgb(255,153,0)"
       id="g1381">
      <path
         d="M399.124 181 L504.54 181 L504.54 187 Q504.54 197 494.54 197 L409.124 197 Q399.124 197 399.124 187 Z"
         stroke="none"
         clip-path="url(#clipPath2)"
         id="path1373" />
      <path
         fill="url(#linearGradient3)"
         d="M399.124 177 Q399.124 167 409.124 167 L494.54 167 Q504.54 167 504.54 177 L504.54 182 L399.124 182 Z"
         clip-path="url(#clipPath2)"
         stroke="none"
         id="path1375" />
      <path
         fill="none"
         d="M401.124 177 Q401.124 169 409.124 169 L494.54 169 Q502.54 169 502.54 177 L502.54 187 Q502.54 195 494.54 195 L409.124 195 Q401.124 195 401.124 187 Z"
         stroke-width="2"
         clip-path="url(#clipPath2)"
         stroke="rgb(255,240,217)"
         id="path1377" />
      <path
         fill="none"
         d="M401.124 177 Q401.124 169 409.124 169 L494.54 169 Q502.54 169 502.54 177 L502.54 187 Q502.54 195 494.54 195 L409.124 195 Q401.124 195 401.124 187 Z"
         clip-path="url(#clipPath2)"
         id="path1379" />
    </g>
    <g
       font-size="14px"
       stroke-linecap="butt"
       transform="matrix(1,0,0,1,-113,-88)"
       text-rendering="geometricPrecision"
       font-family="'Courier New'"
       shape-rendering="geometricPrecision"
       font-weight="bold"
       stroke-miterlimit="1.45"
       id="g1385">
      <text
         x="414.0258"
         xml:space="preserve"
         y="185.7256"
         clip-path="url(#clipPath2)"
         stroke="none"
         id="text1383">Version 3</text>
    </g>
    <g
       fill="silver"
       text-rendering="geometricPrecision"
       shape-rendering="geometricPrecision"
       transform="matrix(1,0,0,1,-113,-88)"
       stroke="silver"
       id="g1389">
      <rect
         x="417.632"
         y="215.74"
         clip-path="url(#clipPath2)"
         width="68.4"
         rx="4"
         ry="4"
         height="30"
         stroke="none"
         id="rect1387" />
    </g>
    <g
       text-rendering="geometricPrecision"
       stroke-miterlimit="1.45"
       shape-rendering="geometricPrecision"
       font-family="'Courier New'"
       transform="matrix(1,0,0,1,-113,-88)"
       stroke-linecap="butt"
       id="g1393">
      <text
         x="444.6308"
         xml:space="preserve"
         y="233.9334"
         clip-path="url(#clipPath2)"
         stroke="none"
         id="text1391">A1</text>
    </g>
    <g
       fill="silver"
       text-rendering="geometricPrecision"
       shape-rendering="geometricPrecision"
       transform="matrix(1,0,0,1,-113,-88)"
       stroke="silver"
       id="g1397">
      <rect
         x="417.632"
         y="264.48"
         clip-path="url(#clipPath2)"
         width="68.4"
         rx="4"
         ry="4"
         height="30"
         stroke="none"
         id="rect1395" />
    </g>
    <g
       text-rendering="geometricPrecision"
       stroke-miterlimit="1.45"
       shape-rendering="geometricPrecision"
       font-family="'Courier New'"
       transform="matrix(1,0,0,1,-113,-88)"
       stroke-linecap="butt"
       id="g1401">
      <text
         x="448.2314"
         xml:space="preserve"
         y="282.6734"
         clip-path="url(#clipPath2)"
         stroke="none"
         id="text1399">B</text>
    </g>
    <g
       fill="rgb(255,204,0)"
       text-rendering="geometricPrecision"
       shape-rendering="geometricPrecision"
       transform="matrix(1,0,0,1,-113,-88)"
       stroke="rgb(255,204,0)"
       id="g1405">
      <rect
         x="417.632"
         y="313.22"
         clip-path="url(#clipPath2)"
         width="68.4"
         rx="4"
         ry="4"
         height="30"
         stroke="none"
         id="rect1403" />
    </g>
    <g
       text-rendering="geometricPrecision"
       stroke-miterlimit="1.45"
       shape-rendering="geometricPrecision"
       transform="matrix(1,0,0,1,-113,-88)"
       stroke-linecap="butt"
       id="g1411">
      <rect
         x="417.632"
         y="313.22"
         clip-path="url(#clipPath2)"
         fill="none"
         width="68.4"
         rx="4"
         ry="4"
         height="30"
         id="rect1407" />
      <text
         x="444.6308"
         xml:space="preserve"
         y="331.4134"
         clip-path="url(#clipPath2)"
         font-family="'Courier New'"
         stroke="none"
         id="text1409">C2</text>
    </g>
    <g
       fill="rgb(255,153,0)"
       text-rendering="geometricPrecision"
       shape-rendering="geometricPrecision"
       transform="matrix(1,0,0,1,-113,-88)"
       stroke="rgb(255,153,0)"
       id="g1421">
      <path
         d="M534.54 181 L639.956 181 L639.956 187 Q639.956 197 629.956 197 L544.54 197 Q534.54 197 534.54 187 Z"
         stroke="none"
         clip-path="url(#clipPath2)"
         id="path1413" />
      <path
         fill="url(#linearGradient4)"
         d="M534.54 177 Q534.54 167 544.54 167 L629.956 167 Q639.956 167 639.956 177 L639.956 182 L534.54 182 Z"
         clip-path="url(#clipPath2)"
         stroke="none"
         id="path1415" />
      <path
         fill="none"
         d="M536.54 177 Q536.54 169 544.54 169 L629.956 169 Q637.956 169 637.956 177 L637.956 187 Q637.956 195 629.956 195 L544.54 195 Q536.54 195 536.54 187 Z"
         stroke-width="2"
         clip-path="url(#clipPath2)"
         stroke="rgb(255,240,217)"
         id="path1417" />
      <path
         fill="none"
         d="M536.54 177 Q536.54 169 544.54 169 L629.956 169 Q637.956 169 637.956 177 L637.956 187 Q637.956 195 629.956 195 L544.54 195 Q536.54 195 536.54 187 Z"
         clip-path="url(#clipPath2)"
         id="path1419" />
    </g>
    <g
       font-size="14px"
       stroke-linecap="butt"
       transform="matrix(1,0,0,1,-113,-88)"
       text-rendering="geometricPrecision"
       font-family="'Courier New'"
       shape-rendering="geometricPrecision"
       font-weight="bold"
       stroke-miterlimit="1.45"
       id="g1425">
      <text
         x="549.4418"
         xml:space="preserve"
         y="185.7256"
         clip-path="url(#clipPath2)"
         stroke="none"
         id="text1423">Version 4</text>
    </g>
    <g
       fill="rgb(255,204,0)"
       text-rendering="geometricPrecision"
       shape-rendering="geometricPrecision"
       transform="matrix(1,0,0,1,-113,-88)"
       stroke="rgb(255,204,0)"
       id="g1429">
      <rect
         x="553.048"
         y="215.74"
         clip-path="url(#clipPath2)"
         width="68.4"
         rx="4"
         ry="4"
         height="30"
         stroke="none"
         id="rect1427" />
    </g>
    <g
       text-rendering="geometricPrecision"
       stroke-miterlimit="1.45"
       shape-rendering="geometricPrecision"
       transform="matrix(1,0,0,1,-113,-88)"
       stroke-linecap="butt"
       id="g1435">
      <rect
         x="553.048"
         y="215.74"
         clip-path="url(#clipPath2)"
         fill="none"
         width="68.4"
         rx="4"
         ry="4"
         height="30"
         id="rect1431" />
      <text
         x="580.0468"
         xml:space="preserve"
         y="233.9334"
         clip-path="url(#clipPath2)"
         font-family="'Courier New'"
         stroke="none"
         id="text1433">A2</text>
    </g>
    <g
       fill="rgb(255,204,0)"
       text-rendering="geometricPrecision"
       shape-rendering="geometricPrecision"
       transform="matrix(1,0,0,1,-113,-88)"
       stroke="rgb(255,204,0)"
       id="g1439">
      <rect
         x="553.048"
         y="264.48"
         clip-path="url(#clipPath2)"
         width="68.4"
         rx="4"
         ry="4"
         height="30"
         stroke="none"
         id="rect1437" />
    </g>
    <g
       text-rendering="geometricPrecision"
       stroke-miterlimit="1.45"
       shape-rendering="geometricPrecision"
       transform="matrix(1,0,0,1,-113,-88)"
       stroke-linecap="butt"
       id="g1445">
      <rect
         x="553.048"
         y="264.48"
         clip-path="url(#clipPath2)"
         fill="none"
         width="68.4"
         rx="4"
         ry="4"
         height="30"
         id="rect1441" />
      <text
         x="580.0468"
         xml:space="preserve"
         y="282.6734"
         clip-path="url(#clipPath2)"
         font-family="'Courier New'"
         stroke="none"
         id="text1443">B1</text>
    </g>
    <g
       fill="silver"
       text-rendering="geometricPrecision"
       shape-rendering="geometricPrecision"
       transform="matrix(1,0,0,1,-113,-88)"
       stroke="silver"
       id="g1449">
      <rect
         x="553.048"
         y="313.22"
         clip-path="url(#clipPath2)"
         width="68.4"
         rx="4"
         ry="4"
         height="30"
         stroke="none"
         id="rect1447" />
    </g>
    <g
       text-rendering="geometricPrecision"
       stroke-miterlimit="1.45"
       shape-rendering="geometricPrecision"
       font-family="'Courier New'"
       transform="matrix(1,0,0,1,-113,-88)"
       stroke-linecap="butt"
       id="g1453">
      <text
         x="580.0468"
         xml:space="preserve"
         y="331.4134"
         clip-path="url(#clipPath2)"
         stroke="none"
         id="text1451">C2</text>
    </g>
    <g
       fill="rgb(255,153,0)"
       text-rendering="geometricPrecision"
       shape-rendering="geometricPrecision"
       transform="matrix(1,0,0,1,-113,-88)"
       stroke="rgb(255,153,0)"
       id="g1463">
      <path
         d="M669.956 181 L775.372 181 L775.372 187 Q775.372 197 765.372 197 L679.956 197 Q669.956 197 669.956 187 Z"
         stroke="none"
         clip-path="url(#clipPath2)"
         id="path1455" />
      <path
         fill="url(#linearGradient5)"
         d="M669.956 177 Q669.956 167 679.956 167 L765.372 167 Q775.372 167 775.372 177 L775.372 182 L669.956 182 Z"
         clip-path="url(#clipPath2)"
         stroke="none"
         id="path1457" />
      <path
         fill="none"
         d="M671.956 177 Q671.956 169 679.956 169 L765.372 169 Q773.372 169 773.372 177 L773.372 187 Q773.372 195 765.372 195 L679.956 195 Q671.956 195 671.956 187 Z"
         stroke-width="2"
         clip-path="url(#clipPath2)"
         stroke="rgb(255,240,217)"
         id="path1459" />
      <path
         fill="none"
         d="M671.956 177 Q671.956 169 679.956 169 L765.372 169 Q773.372 169 773.372 177 L773.372 187 Q773.372 195 765.372 195 L679.956 195 Q671.956 195 671.956 187 Z"
         clip-path="url(#clipPath2)"
         id="path1461" />
    </g>
    <g
       font-size="14px"
       stroke-linecap="butt"
       transform="matrix(1,0,0,1,-113,-88)"
       text-rendering="geometricPrecision"
       font-family="'Courier New'"
       shape-rendering="geometricPrecision"
       font-weight="bold"
       stroke-miterlimit="1.45"
       id="g1467">
      <text
         x="684.8578"
         xml:space="preserve"
         y="185.7256"
         clip-path="url(#clipPath2)"
         stroke="none"
         id="text1465">Version 5</text>
    </g>
    <g
       fill="silver"
       text-rendering="geometricPrecision"
       shape-rendering="geometricPrecision"
       transform="matrix(1,0,0,1,-113,-88)"
       stroke="silver"
       id="g1471">
      <rect
         x="688.464"
         y="215.74"
         clip-path="url(#clipPath2)"
         width="68.4"
         rx="4"
         ry="4"
         height="30"
         stroke="none"
         id="rect1469" />
    </g>
    <g
       text-rendering="geometricPrecision"
       stroke-miterlimit="1.45"
       shape-rendering="geometricPrecision"
       font-family="'Courier New'"
       transform="matrix(1,0,0,1,-113,-88)"
       stroke-linecap="butt"
       id="g1475">
      <text
         x="715.4628"
         xml:space="preserve"
         y="233.9334"
         clip-path="url(#clipPath2)"
         stroke="none"
         id="text1473">A2</text>
    </g>
    <g
       fill="rgb(255,204,0)"
       text-rendering="geometricPrecision"
       shape-rendering="geometricPrecision"
       transform="matrix(1,0,0,1,-113,-88)"
       stroke="rgb(255,204,0)"
       id="g1479">
      <rect
         x="688.464"
         y="264.48"
         clip-path="url(#clipPath2)"
         width="68.4"
         rx="4"
         ry="4"
         height="30"
         stroke="none"
         id="rect1477" />
    </g>
    <g
       text-rendering="geometricPrecision"
       stroke-miterlimit="1.45"
       shape-rendering="geometricPrecision"
       transform="matrix(1,0,0,1,-113,-88)"
       stroke-linecap="butt"
       id="g1485">
      <rect
         x="688.464"
         y="264.48"
         clip-path="url(#clipPath2)"
         fill="none"
         width="68.4"
         rx="4"
         ry="4"
         height="30"
         id="rect1481" />
      <text
         x="715.4628"
         xml:space="preserve"
         y="282.6734"
         clip-path="url(#clipPath2)"
         font-family="'Courier New'"
         stroke="none"
         id="text1483">B2</text>
    </g>
    <g
       fill="rgb(255,204,0)"
       text-rendering="geometricPrecision"
       shape-rendering="geometricPrecision"
       transform="matrix(1,0,0,1,-113,-88)"
       stroke="rgb(255,204,0)"
       id="g1489">
      <rect
         x="688.464"
         y="313.22"
         clip-path="url(#clipPath2)"
         width="68.4"
         rx="4"
         ry="4"
         height="30"
         stroke="none"
         id="rect1487" />
    </g>
    <g
       text-rendering="geometricPrecision"
       stroke-miterlimit="1.45"
       shape-rendering="geometricPrecision"
       transform="matrix(1,0,0,1,-113,-88)"
       stroke-linecap="butt"
       id="g1531">
      <rect
         x="688.464"
         y="313.22"
         clip-path="url(#clipPath2)"
         fill="none"
         width="68.4"
         rx="4"
         ry="4"
         height="30"
         id="rect1491" />
      <text
         x="715.4628"
         xml:space="preserve"
         y="331.4134"
         clip-path="url(#clipPath2)"
         font-family="'Courier New'"
         stroke="none"
         id="text1493">C3</text>
      <path
         fill="none"
         d="M181 196.9933 L181 215.7451"
         clip-path="url(#clipPath2)"
         id="path1495" />
      <path
         fill="none"
         d="M181 245.7333 L181 264.4851"
         clip-path="url(#clipPath2)"
         id="path1497" />
      <path
         fill="none"
         d="M181 294.4733 L181 313.2251"
         clip-path="url(#clipPath2)"
         id="path1499" />
      <path
         fill="none"
         d="M316.416 196.9933 L316.416 215.7451"
         clip-path="url(#clipPath2)"
         id="path1501" />
      <path
         fill="none"
         d="M316.416 245.7333 L316.416 264.4851"
         clip-path="url(#clipPath2)"
         id="path1503" />
      <path
         fill="none"
         d="M316.416 294.4733 L316.416 313.2251"
         clip-path="url(#clipPath2)"
         id="path1505" />
      <path
         fill="none"
         d="M451.832 196.9933 L451.832 215.7451"
         clip-path="url(#clipPath2)"
         id="path1507" />
      <path
         fill="none"
         d="M451.832 245.7333 L451.832 264.4851"
         clip-path="url(#clipPath2)"
         id="path1509" />
      <path
         fill="none"
         d="M451.832 294.4733 L451.832 313.2251"
         clip-path="url(#clipPath2)"
         id="path1511" />
      <path
         fill="none"
         d="M587.248 196.9933 L587.248 215.7451"
         clip-path="url(#clipPath2)"
         id="path1513" />
      <path
         fill="none"
         d="M587.248 245.7333 L587.248 264.4851"
         clip-path="url(#clipPath2)"
         id="path1515" />
      <path
         fill="none"
         d="M587.248 294.4733 L587.248 313.2251"
         clip-path="url(#clipPath2)"
         id="path1517" />
      <path
         fill="none"
         d="M185.4 142.96 L707.96 142.96"
         clip-path="url(#clipPath2)"
         id="path1519" />
      <path
         d="M715.96 142.96 L703.96 137.96 L706.96 142.96 L703.96 147.96 Z"
         clip-path="url(#clipPath2)"
         stroke="none"
         id="path1521" />
      <text
         x="375.0677"
         font-size="14px"
         y="116.6856"
         clip-path="url(#clipPath2)"
         font-family="'Courier New'"
         stroke="none"
         font-weight="bold"
         xml:space="preserve"
         id="text1523">Checkins Over Time</text>
      <path
         fill="none"
         d="M722.664 196.9933 L722.664 215.7451"
         clip-path="url(#clipPath2)"
         id="path1525" />
      <path
         fill="none"
         d="M722.664 245.7333 L722.664 264.4851"
         clip-path="url(#clipPath2)"
         id="path1527" />
      <path
         fill="none"
         d="M722.664 294.4733 L722.664 313.2251"
         clip-path="url(#clipPath2)"
         id="path1529" />
    </g>
  </g>
</svg>
