<?xml version="1.0" encoding="UTF-8" standalone="no"?>
<!-- Uploaded to: SVG Repo, www.svgrepo.com, Generator: SVG Repo Mixer Tools -->

<svg
        width="800px"
        height="800px"
        viewBox="-0.5 0 48 48"
        version="1.1"
        id="svg1703"
        sodipodi:docname="google.svg"
        inkscape:version="1.2.2 (732a01da63, 2022-12-09)"
        inkscape:export-filename=".\google.png"
        inkscape:export-xdpi="96"
        inkscape:export-ydpi="96"
        xmlns:inkscape="http://www.inkscape.org/namespaces/inkscape"
        xmlns:sodipodi="http://sodipodi.sourceforge.net/DTD/sodipodi-0.dtd"
        xmlns="http://www.w3.org/2000/svg"
        xmlns:rdf="http://www.w3.org/1999/02/22-rdf-syntax-ns#"
        xmlns:cc="http://creativecommons.org/ns#"
        xmlns:dc="http://purl.org/dc/elements/1.1/">
  <sodipodi:namedview
     id="namedview1705"
     pagecolor="#505050"
     bordercolor="#eeeeee"
     borderopacity="1"
     inkscape:showpageshadow="0"
     inkscape:pageopacity="0"
     inkscape:pagecheckerboard="0"
     inkscape:deskcolor="#505050"
     showgrid="false"
     inkscape:zoom="0.96875"
     inkscape:cx="401.03226"
     inkscape:cy="400"
     inkscape:window-width="1920"
     inkscape:window-height="991"
     inkscape:window-x="-9"
     inkscape:window-y="-9"
     inkscape:window-maximized="1"
     inkscape:current-layer="svg1703" />
  <title
     id="title1690">Google Logo</title>
  <desc
     id="desc1692">Created with Sketch.</desc>
  <defs
     id="defs1694" />
  <g
     id="Icons"
     stroke="none"
     stroke-width="1"
     fill="none"
     fill-rule="evenodd">
    <g
       id="Color-"
       transform="translate(-401.000000, -860.000000)">
      <g
         id="Google"
         transform="translate(401.000000, 860.000000)">
        <path
           d="M9.82727273,24 C9.82727273,22.4757333 10.0804318,21.0144 10.5322727,19.6437333 L2.62345455,13.6042667 C1.08206818,16.7338667 0.213636364,20.2602667 0.213636364,24 C0.213636364,27.7365333 1.081,31.2608 2.62025,34.3882667 L10.5247955,28.3370667 C10.0772273,26.9728 9.82727273,25.5168 9.82727273,24"
           id="Fill-1"
           fill="#FBBC05" />
        <path
           d="M23.7136364,10.1333333 C27.025,10.1333333 30.0159091,11.3066667 32.3659091,13.2266667 L39.2022727,6.4 C35.0363636,2.77333333 29.6954545,0.533333333 23.7136364,0.533333333 C14.4268636,0.533333333 6.44540909,5.84426667 2.62345455,13.6042667 L10.5322727,19.6437333 C12.3545909,14.112 17.5491591,10.1333333 23.7136364,10.1333333"
           id="Fill-2"
           fill="#EB4335" />
        <path
           d="M23.7136364,37.8666667 C17.5491591,37.8666667 12.3545909,33.888 10.5322727,28.3562667 L2.62345455,34.3946667 C6.44540909,42.1557333 14.4268636,47.4666667 23.7136364,47.4666667 C29.4455,47.4666667 34.9177955,45.4314667 39.0249545,41.6181333 L31.5177727,35.8144 C29.3995682,37.1488 26.7323182,37.8666667 23.7136364,37.8666667"
           id="Fill-3"
           fill="#34A853" />
        <path
           d="M46.1454545,24 C46.1454545,22.6133333 45.9318182,21.12 45.6113636,19.7333333 L23.7136364,19.7333333 L23.7136364,28.8 L36.3181818,28.8 C35.6879545,31.8912 33.9724545,34.2677333 31.5177727,35.8144 L39.0249545,41.6181333 C43.3393409,37.6138667 46.1454545,31.6490667 46.1454545,24"
           id="Fill-4"
           fill="#4285F4" />
      </g>
    </g>
  </g>
  <metadata
     id="metadata1707">
    <rdf:RDF>
      <cc:Work
         rdf:about="">
        <dc:title>Google Logo</dc:title>
      </cc:Work>
    </rdf:RDF>
  </metadata>
</svg>
