<?xml version="1.0" encoding="UTF-8" standalone="no"?>
<!-- Uploaded to: SVG Repo, www.svgrepo.com, Generator: SVG Repo Mixer Tools -->

<svg
        width="800px"
        height="800px"
        viewBox="0 0 256 256"
        version="1.1"
        preserveAspectRatio="xMidYMid"
        id="svg678"
        sodipodi:docname="pycharm.svg"
        inkscape:version="1.2.2 (732a01da63, 2022-12-09)"
        inkscape:export-filename="pycharm.png"
        inkscape:export-xdpi="96"
        inkscape:export-ydpi="96"
        xmlns:inkscape="http://www.inkscape.org/namespaces/inkscape"
        xmlns:sodipodi="http://sodipodi.sourceforge.net/DTD/sodipodi-0.dtd"
        xmlns="http://www.w3.org/2000/svg"
        xmlns:rdf="http://www.w3.org/1999/02/22-rdf-syntax-ns#"
        xmlns:cc="http://creativecommons.org/ns#"
        xmlns:dc="http://purl.org/dc/elements/1.1/">
  <title
     id="title684">PyCharm Logo</title>
  <sodipodi:namedview
     id="namedview680"
     pagecolor="#505050"
     bordercolor="#eeeeee"
     borderopacity="1"
     inkscape:showpageshadow="0"
     inkscape:pageopacity="0"
     inkscape:pagecheckerboard="0"
     inkscape:deskcolor="#505050"
     showgrid="false"
     inkscape:zoom="0.96875"
     inkscape:cx="400"
     inkscape:cy="400"
     inkscape:window-width="1920"
     inkscape:window-height="991"
     inkscape:window-x="-9"
     inkscape:window-y="-9"
     inkscape:window-maximized="1"
     inkscape:current-layer="svg678" />
  <defs
     id="defs660">
    <linearGradient
       x1="-46.5647482%"
       y1="50%"
       x2="90.4496403%"
       y2="50%"
       id="linearGradient-1">
      <stop
         stop-color="#21D789"
         offset="0%"
         id="stop581" />
      <stop
         stop-color="#07C3F2"
         offset="100%"
         id="stop583" />
    </linearGradient>
    <linearGradient
       x1="-53.6961722%"
       y1="105.498047%"
       x2="133.923445%"
       y2="-7.578125%"
       id="linearGradient-2">
      <stop
         stop-color="#FCF84A"
         offset="1%"
         id="stop586" />
      <stop
         stop-color="#A7EB62"
         offset="11%"
         id="stop588" />
      <stop
         stop-color="#5FE077"
         offset="21%"
         id="stop590" />
      <stop
         stop-color="#32DA84"
         offset="27%"
         id="stop592" />
      <stop
         stop-color="#21D789"
         offset="31%"
         id="stop594" />
      <stop
         stop-color="#21D789"
         offset="58%"
         id="stop596" />
      <stop
         stop-color="#21D789"
         offset="60%"
         id="stop598" />
      <stop
         stop-color="#20D68C"
         offset="69%"
         id="stop600" />
      <stop
         stop-color="#1ED497"
         offset="76%"
         id="stop602" />
      <stop
         stop-color="#19D1A9"
         offset="83%"
         id="stop604" />
      <stop
         stop-color="#13CCC2"
         offset="90%"
         id="stop606" />
      <stop
         stop-color="#0BC6E1"
         offset="97%"
         id="stop608" />
      <stop
         stop-color="#07C3F2"
         offset="100%"
         id="stop610" />
    </linearGradient>
    <linearGradient
       x1="30.7014388%"
       y1="115.958904%"
       x2="77.7517986%"
       y2="22.2488584%"
       id="linearGradient-3">
      <stop
         stop-color="#21D789"
         offset="0%"
         id="stop613" />
      <stop
         stop-color="#24D788"
         offset="16%"
         id="stop615" />
      <stop
         stop-color="#2FD886"
         offset="30%"
         id="stop617" />
      <stop
         stop-color="#41DA82"
         offset="44%"
         id="stop619" />
      <stop
         stop-color="#5ADC7D"
         offset="56%"
         id="stop621" />
      <stop
         stop-color="#7AE077"
         offset="69%"
         id="stop623" />
      <stop
         stop-color="#A1E36E"
         offset="81%"
         id="stop625" />
      <stop
         stop-color="#CFE865"
         offset="93%"
         id="stop627" />
      <stop
         stop-color="#F1EB5E"
         offset="100%"
         id="stop629" />
    </linearGradient>
    <linearGradient
       x1="-9.66216216%"
       y1="201.742857%"
       x2="118.558559%"
       y2="-16.9428571%"
       id="linearGradient-4">
      <stop
         stop-color="#21D789"
         offset="0%"
         id="stop632" />
      <stop
         stop-color="#24D788"
         offset="6%"
         id="stop634" />
      <stop
         stop-color="#2FD886"
         offset="11%"
         id="stop636" />
      <stop
         stop-color="#41DA82"
         offset="16%"
         id="stop638" />
      <stop
         stop-color="#5ADD7D"
         offset="21%"
         id="stop640" />
      <stop
         stop-color="#79E077"
         offset="25%"
         id="stop642" />
      <stop
         stop-color="#7CE076"
         offset="26%"
         id="stop644" />
      <stop
         stop-color="#8CE173"
         offset="50%"
         id="stop646" />
      <stop
         stop-color="#B2E56B"
         offset="92%"
         id="stop648" />
    </linearGradient>
    <linearGradient
       x1="111.835165%"
       y1="50.480167%"
       x2="-14.2197802%"
       y2="49.3632568%"
       id="linearGradient-5">
      <stop
         stop-color="#FCF84A"
         offset="39%"
         id="stop651" />
      <stop
         stop-color="#ECF451"
         offset="54%"
         id="stop653" />
      <stop
         stop-color="#C2E964"
         offset="83%"
         id="stop655" />
      <stop
         stop-color="#B2E56B"
         offset="92%"
         id="stop657" />
    </linearGradient>
  </defs>
  <g
     id="g676">
    <polygon
       fill="url(#linearGradient-1)"
       points="179.6 40.4 254.4 102.4 227.2 157.2 182.4 144.8 143.2 144.8"
       id="polygon662" />
    <polygon
       fill="url(#linearGradient-2)"
       points="104 80.8 89.6 157.2 88.4 183.6 51.6 199.2 0 204.8 15.6 39.2 109.6 0 167.2 38"
       id="polygon664" />
    <polygon
       fill="url(#linearGradient-3)"
       points="104 80.8 111.2 228.4 87.6 256 0 204.8 72 97.2"
       id="polygon666" />
    <polygon
       fill="url(#linearGradient-4)"
       points="200.8 70 112 70 190.4 0"
       id="polygon668" />
    <polygon
       fill="url(#linearGradient-5)"
       points="256 228.8 178 255.6 74 226.4 104 80.8 116 70 179.6 64 173.6 127.6 224 108"
       id="polygon670" />
    <rect
       fill="#000000"
       x="48"
       y="48"
       width="160"
       height="160"
       id="rect672" />
    <path
       d="M63.2,178 L123.2,178 L123.2,188 L63.2,188 L63.2,178 Z M62.8,68.8 L90,68.8 C106,68.8 115.2,78 115.2,91.6 C115.2,106.8 103.2,114.8 88.4,114.8 L77.2,114.8 L77.2,134.8 L62.8,134.8 L62.8,68.8 L62.8,68.8 Z M100.4,92.4 C100.4,86 96,82.4 88.4,82.4 L77.2,82.4 L77.2,102.8 L88.8,102.8 C96.66,102.8 100.4,98 100.4,92.4 Z M120.8,102.4 C120.595762,93.2154633 124.154413,84.3465202 130.650467,77.8504665 C137.14652,71.3544128 146.015463,67.7957616 155.2,68 C167.6,68 175.2,72 181.2,78.4 L172,89.2 C166.8,84.4 161.6,81.6 155.2,81.6 C144,81.6 136,90.8 136,102.4 C136,113.6 144,123.2 155.2,123.2 C162.8,123.2 167.6,120 172.8,115.6 L182,124.8 C175.2,132 167.6,136.8 154.8,136.8 C145.712905,136.800629 137.003697,133.16364 130.615836,126.700628 C124.227975,120.237615 120.693093,111.486466 120.8,102.4 Z"
       fill="#FFFFFF"
       id="path674" />
  </g>
  <metadata
     id="metadata682">
    <rdf:RDF>
      <cc:Work
         rdf:about="">
        <dc:title>PyCharm Logo</dc:title>
      </cc:Work>
    </rdf:RDF>
  </metadata>
</svg>
