<?xml version="1.0" encoding="UTF-8"?>
<svg xmlns="http://www.w3.org/2000/svg" fill-opacity="1" color-rendering="auto" color-interpolation="auto"
     text-rendering="auto" stroke="black" stroke-linecap="square" width="783" stroke-miterlimit="10"
     shape-rendering="auto" stroke-opacity="1" fill="black" stroke-dasharray="none" font-weight="normal"
     stroke-width="1" height="595" font-family="'Dialog'" font-style="normal" stroke-linejoin="miter" font-size="12px"
     stroke-dashoffset="0" image-rendering="auto">
    <!--Generated by ySVG 2.6-->
    <defs id="genericDefs"/>
    <g>
        <defs id="defs1">
            <clipPath clipPathUnits="userSpaceOnUse" id="clipPath1">
                <path d="M0 0 L783 0 L783 595 L0 595 L0 0 Z"/>
            </clipPath>
            <clipPath clipPathUnits="userSpaceOnUse" id="clipPath2">
                <path d="M-46 -102 L737 -102 L737 493 L-46 493 L-46 -102 Z"/>
            </clipPath>
        </defs>
        <g fill="rgb(153,153,153)" text-rendering="geometricPrecision" shape-rendering="geometricPrecision"
           transform="matrix(1,0,0,1,46,102)" stroke="rgb(153,153,153)">
            <rect x="-30.4815" y="172.507" clip-path="url(#clipPath2)" width="195.9451" rx="4" ry="4" height="303.3794"
                  stroke="none"/>
        </g>
        <g fill="rgb(235,235,235)" text-rendering="geometricPrecision" shape-rendering="geometricPrecision"
           transform="matrix(1,0,0,1,46,102)" stroke="rgb(235,235,235)">
            <rect x="-30.4815" width="195.9451" height="20.9922" y="172.507" clip-path="url(#clipPath2)" stroke="none"/>
        </g>
        <g font-size="15px" stroke-linecap="butt" transform="matrix(1,0,0,1,46,102)" text-rendering="geometricPrecision"
           font-family="'Courier New'" shape-rendering="geometricPrecision" font-weight="bold" stroke-miterlimit="1.45">
            <text x="-13.5221" xml:space="preserve" y="186.9948" clip-path="url(#clipPath2)" stroke="none">Local Repository A</text>
        </g>
        <g text-rendering="geometricPrecision" stroke-miterlimit="1.45" stroke-dasharray="6,2"
           shape-rendering="geometricPrecision" transform="matrix(1,0,0,1,46,102)" stroke-linecap="butt">
            <rect x="-30.4815" y="172.507" clip-path="url(#clipPath2)" fill="none" width="195.9451" rx="4" ry="4"
                  height="303.3794"/>
        </g>
        <g fill="rgb(255,204,0)" text-rendering="geometricPrecision" shape-rendering="geometricPrecision"
           transform="matrix(1,0,0,1,46,102)" stroke="rgb(255,204,0)">
            <rect x="23.9665" y="208.4992" clip-path="url(#clipPath2)" width="87.0491" rx="4" ry="4" height="30"
                  stroke="none"/>
        </g>
        <g text-rendering="geometricPrecision" stroke-miterlimit="1.45" shape-rendering="geometricPrecision"
           transform="matrix(1,0,0,1,46,102)" stroke-linecap="butt">
            <rect x="23.9665" y="208.4992" clip-path="url(#clipPath2)" fill="none" width="87.0491" rx="4" ry="4"
                  height="30"/>
            <text x="53.0887" y="226.6926" clip-path="url(#clipPath2)" font-family="'Courier New'" stroke="none"
                  font-weight="bold" xml:space="preserve">File</text>
        </g>
        <g fill="rgb(225,225,225)" text-rendering="geometricPrecision" shape-rendering="geometricPrecision"
           transform="matrix(1,0,0,1,46,102)" stroke="rgb(225,225,225)">
            <rect x="-15.4815" y="275.0078" clip-path="url(#clipPath2)" width="165.9451" rx="4" ry="4" height="185.8786"
                  stroke="none"/>
            <rect x="-15.4815" y="275.0078" clip-path="url(#clipPath2)" fill="rgb(235,235,235)" width="165.9451"
                  height="20.9922" stroke="none"/>
        </g>
        <g font-size="15px" stroke-linecap="butt" transform="matrix(1,0,0,1,46,102)" text-rendering="geometricPrecision"
           font-family="'Courier New'" shape-rendering="geometricPrecision" font-weight="bold" stroke-miterlimit="1.45">
            <text x="-4.5206" xml:space="preserve" y="289.4956" clip-path="url(#clipPath2)" stroke="none">Version Database</text>
        </g>
        <g text-rendering="geometricPrecision" stroke-miterlimit="1.45" stroke-width="2"
           shape-rendering="geometricPrecision" transform="matrix(1,0,0,1,46,102)" stroke-linecap="butt">
            <rect x="-15.4815" y="275.0078" clip-path="url(#clipPath2)" fill="none" width="165.9451" rx="4" ry="4"
                  height="185.8786"/>
        </g>
        <g fill="aqua" text-rendering="geometricPrecision" shape-rendering="geometricPrecision"
           transform="matrix(1,0,0,1,46,102)" stroke="aqua">
            <rect x="23.9665" y="311" clip-path="url(#clipPath2)" width="87.0491" rx="4" ry="4" height="30"
                  stroke="none"/>
        </g>
        <g text-rendering="geometricPrecision" stroke-miterlimit="1.45" shape-rendering="geometricPrecision"
           transform="matrix(1,0,0,1,46,102)" stroke-linecap="butt">
            <rect x="23.9665" y="311" clip-path="url(#clipPath2)" fill="none" width="87.0491" rx="4" ry="4"
                  height="30"/>
            <text x="35.0858" y="329.1934" clip-path="url(#clipPath2)" font-family="'Courier New'" stroke="none"
                  font-weight="bold" xml:space="preserve">Version 3</text>
        </g>
        <g fill="aqua" text-rendering="geometricPrecision" shape-rendering="geometricPrecision"
           transform="matrix(1,0,0,1,46,102)" stroke="aqua">
            <rect x="23.9665" y="363.4432" clip-path="url(#clipPath2)" width="87.0491" rx="4" ry="4" height="30"
                  stroke="none"/>
        </g>
        <g text-rendering="geometricPrecision" stroke-miterlimit="1.45" shape-rendering="geometricPrecision"
           transform="matrix(1,0,0,1,46,102)" stroke-linecap="butt">
            <rect x="23.9665" y="363.4432" clip-path="url(#clipPath2)" fill="none" width="87.0491" rx="4" ry="4"
                  height="30"/>
            <text x="35.0858" y="381.6366" clip-path="url(#clipPath2)" font-family="'Courier New'" stroke="none"
                  font-weight="bold" xml:space="preserve">Version 2</text>
        </g>
        <g fill="aqua" text-rendering="geometricPrecision" shape-rendering="geometricPrecision"
           transform="matrix(1,0,0,1,46,102)" stroke="aqua">
            <rect x="23.9665" y="415.8864" clip-path="url(#clipPath2)" width="87.0491" rx="4" ry="4" height="30"
                  stroke="none"/>
        </g>
        <g text-rendering="geometricPrecision" stroke-miterlimit="1.45" shape-rendering="geometricPrecision"
           transform="matrix(1,0,0,1,46,102)" stroke-linecap="butt">
            <rect x="23.9665" y="415.8864" clip-path="url(#clipPath2)" fill="none" width="87.0491" rx="4" ry="4"
                  height="30"/>
            <text x="35.0858" y="434.0798" clip-path="url(#clipPath2)" font-family="'Courier New'" stroke="none"
                  font-weight="bold" xml:space="preserve">Version 1</text>
            <path fill="none" d="M67.4911 274.9722 L67.4911 246.4992" clip-path="url(#clipPath2)"/>
            <path d="M67.4911 238.4992 L62.4911 250.4992 L67.4911 247.4992 L72.4911 250.4992 Z"
                  clip-path="url(#clipPath2)" stroke="none"/>
            <path fill="none" d="M67.4911 363.3994 L67.4911 341" clip-path="url(#clipPath2)"/>
            <path fill="none" d="M67.4911 415.8426 L67.4911 393.4432" clip-path="url(#clipPath2)"/>
        </g>
        <g fill="rgb(153,153,153)" text-rendering="geometricPrecision" shape-rendering="geometricPrecision"
           transform="matrix(1,0,0,1,46,102)" stroke="rgb(153,153,153)">
            <rect x="525.4457" y="174.3103" clip-path="url(#clipPath2)" width="195.9451" rx="4" ry="4" height="303.3794"
                  stroke="none"/>
            <rect x="525.4457" y="174.3103" clip-path="url(#clipPath2)" fill="rgb(235,235,235)" width="195.9451"
                  height="20.9922" stroke="none"/>
        </g>
        <g font-size="15px" stroke-linecap="butt" transform="matrix(1,0,0,1,46,102)" text-rendering="geometricPrecision"
           font-family="'Courier New'" shape-rendering="geometricPrecision" font-weight="bold" stroke-miterlimit="1.45">
            <text x="542.405" xml:space="preserve" y="188.7981" clip-path="url(#clipPath2)" stroke="none">Local Repository B</text>
        </g>
        <g text-rendering="geometricPrecision" stroke-miterlimit="1.45" stroke-dasharray="6,2"
           shape-rendering="geometricPrecision" transform="matrix(1,0,0,1,46,102)" stroke-linecap="butt">
            <rect x="525.4457" y="174.3103" clip-path="url(#clipPath2)" fill="none" width="195.9451" rx="4" ry="4"
                  height="303.3794"/>
        </g>
        <g fill="rgb(255,204,0)" text-rendering="geometricPrecision" shape-rendering="geometricPrecision"
           transform="matrix(1,0,0,1,46,102)" stroke="rgb(255,204,0)">
            <rect x="579.8937" y="210.3025" clip-path="url(#clipPath2)" width="87.0491" rx="4" ry="4" height="30"
                  stroke="none"/>
        </g>
        <g text-rendering="geometricPrecision" stroke-miterlimit="1.45" shape-rendering="geometricPrecision"
           transform="matrix(1,0,0,1,46,102)" stroke-linecap="butt">
            <rect x="579.8937" y="210.3025" clip-path="url(#clipPath2)" fill="none" width="87.0491" rx="4" ry="4"
                  height="30"/>
            <text x="609.0159" y="228.4958" clip-path="url(#clipPath2)" font-family="'Courier New'" stroke="none"
                  font-weight="bold" xml:space="preserve">File</text>
            <path fill="none" d="M173.4636 310.1272 L517.4017 310.1272" clip-path="url(#clipPath2)"/>
            <path d="M165.4636 310.1272 L177.4636 315.1272 L174.4636 310.1272 L177.4636 305.1272 Z"
                  clip-path="url(#clipPath2)" stroke="none"/>
            <path d="M525.4017 310.1272 L513.4017 305.1272 L516.4017 310.1272 L513.4017 315.1272 Z"
                  clip-path="url(#clipPath2)" stroke="none"/>
        </g>
        <g fill="rgb(225,225,225)" text-rendering="geometricPrecision" shape-rendering="geometricPrecision"
           transform="matrix(1,0,0,1,46,102)" stroke="rgb(225,225,225)">
            <rect x="540.4457" y="276.8111" clip-path="url(#clipPath2)" width="165.9451" rx="4" ry="4" height="185.8786"
                  stroke="none"/>
            <rect x="540.4457" y="276.8111" clip-path="url(#clipPath2)" fill="rgb(235,235,235)" width="165.9451"
                  height="20.9922" stroke="none"/>
        </g>
        <g font-size="15px" stroke-linecap="butt" transform="matrix(1,0,0,1,46,102)" text-rendering="geometricPrecision"
           font-family="'Courier New'" shape-rendering="geometricPrecision" font-weight="bold" stroke-miterlimit="1.45">
            <text x="551.4065" xml:space="preserve" y="291.2989" clip-path="url(#clipPath2)" stroke="none">Version Database</text>
        </g>
        <g text-rendering="geometricPrecision" stroke-miterlimit="1.45" stroke-width="2"
           shape-rendering="geometricPrecision" transform="matrix(1,0,0,1,46,102)" stroke-linecap="butt">
            <rect x="540.4457" y="276.8111" clip-path="url(#clipPath2)" fill="none" width="165.9451" rx="4" ry="4"
                  height="185.8786"/>
        </g>
        <g fill="aqua" text-rendering="geometricPrecision" shape-rendering="geometricPrecision"
           transform="matrix(1,0,0,1,46,102)" stroke="aqua">
            <rect x="579.8937" y="312.8033" clip-path="url(#clipPath2)" width="87.0491" rx="4" ry="4" height="30"
                  stroke="none"/>
        </g>
        <g text-rendering="geometricPrecision" stroke-miterlimit="1.45" shape-rendering="geometricPrecision"
           transform="matrix(1,0,0,1,46,102)" stroke-linecap="butt">
            <rect x="579.8937" y="312.8033" clip-path="url(#clipPath2)" fill="none" width="87.0491" rx="4" ry="4"
                  height="30"/>
            <text x="591.0129" y="330.9966" clip-path="url(#clipPath2)" font-family="'Courier New'" stroke="none"
                  font-weight="bold" xml:space="preserve">Version 3</text>
        </g>
        <g fill="aqua" text-rendering="geometricPrecision" shape-rendering="geometricPrecision"
           transform="matrix(1,0,0,1,46,102)" stroke="aqua">
            <rect x="579.8937" y="365.2465" clip-path="url(#clipPath2)" width="87.0491" rx="4" ry="4" height="30"
                  stroke="none"/>
        </g>
        <g text-rendering="geometricPrecision" stroke-miterlimit="1.45" shape-rendering="geometricPrecision"
           transform="matrix(1,0,0,1,46,102)" stroke-linecap="butt">
            <rect x="579.8937" y="365.2465" clip-path="url(#clipPath2)" fill="none" width="87.0491" rx="4" ry="4"
                  height="30"/>
            <text x="591.0129" y="383.4398" clip-path="url(#clipPath2)" font-family="'Courier New'" stroke="none"
                  font-weight="bold" xml:space="preserve">Version 2</text>
        </g>
        <g fill="aqua" text-rendering="geometricPrecision" shape-rendering="geometricPrecision"
           transform="matrix(1,0,0,1,46,102)" stroke="aqua">
            <rect x="579.8937" y="417.6897" clip-path="url(#clipPath2)" width="87.0491" rx="4" ry="4" height="30"
                  stroke="none"/>
        </g>
        <g text-rendering="geometricPrecision" stroke-miterlimit="1.45" shape-rendering="geometricPrecision"
           transform="matrix(1,0,0,1,46,102)" stroke-linecap="butt">
            <rect x="579.8937" y="417.6897" clip-path="url(#clipPath2)" fill="none" width="87.0491" rx="4" ry="4"
                  height="30"/>
            <text x="591.0129" y="435.8831" clip-path="url(#clipPath2)" font-family="'Courier New'" stroke="none"
                  font-weight="bold" xml:space="preserve">Version 1</text>
            <path fill="none" d="M623.4182 276.7755 L623.4182 248.3025" clip-path="url(#clipPath2)"/>
            <path d="M623.4182 240.3025 L618.4182 252.3025 L623.4182 249.3025 L628.4182 252.3025 Z"
                  clip-path="url(#clipPath2)" stroke="none"/>
            <path fill="none" d="M623.4182 365.2027 L623.4182 342.8033" clip-path="url(#clipPath2)"/>
            <path fill="none" d="M623.4182 417.6459 L623.4182 395.2465" clip-path="url(#clipPath2)"/>
        </g>
        <g fill="gray" text-rendering="geometricPrecision" shape-rendering="geometricPrecision"
           transform="matrix(1,0,0,1,46,102)" stroke="gray">
            <rect x="254.9821" y="-86.9844" clip-path="url(#clipPath2)" width="195.9451" rx="4" ry="4" height="236.8708"
                  stroke="none"/>
            <rect x="254.9821" y="-86.9844" clip-path="url(#clipPath2)" fill="rgb(235,235,235)" width="195.9451"
                  height="20.9922" stroke="none"/>
        </g>
        <g font-size="15px" stroke-linecap="butt" transform="matrix(1,0,0,1,46,102)" text-rendering="geometricPrecision"
           font-family="'Courier New'" shape-rendering="geometricPrecision" font-weight="bold" stroke-miterlimit="1.45">
            <text x="276.4422" xml:space="preserve" y="-72.4966" clip-path="url(#clipPath2)" stroke="none">Remote Repository</text>
        </g>
        <g text-rendering="geometricPrecision" stroke-miterlimit="1.45" stroke-width="2"
           shape-rendering="geometricPrecision" transform="matrix(1,0,0,1,46,102)" stroke-linecap="butt">
            <rect x="254.9821" y="-86.9844" clip-path="url(#clipPath2)" fill="none" width="195.9451" rx="4" ry="4"
                  height="236.8708"/>
            <path fill="none" d="M141.7396 164.4653 L141.7396 87.1648 L246.9545 87.1648" stroke-width="1"
                  clip-path="url(#clipPath2)"/>
            <path d="M141.7396 172.4653 L146.7396 160.4653 L141.7396 163.4653 L136.7396 160.4653 Z" stroke-width="1"
                  clip-path="url(#clipPath2)" stroke="none"/>
            <path d="M254.9545 87.1648 L242.9545 82.1648 L245.9545 87.1648 L242.9545 92.1648 Z" stroke-width="1"
                  clip-path="url(#clipPath2)" stroke="none"/>
            <path fill="none" d="M549.1697 166.2678 L549.1697 87.1648 L458.9272 87.1648" stroke-width="1"
                  clip-path="url(#clipPath2)"/>
            <path d="M549.1697 174.2678 L554.1697 162.2678 L549.1697 165.2678 L544.1697 162.2678 Z" stroke-width="1"
                  clip-path="url(#clipPath2)" stroke="none"/>
            <path d="M450.9272 87.1648 L462.9272 92.1648 L459.9272 87.1648 L462.9272 82.1648 Z" stroke-width="1"
                  clip-path="url(#clipPath2)" stroke="none"/>
        </g>
        <g fill="rgb(225,225,225)" text-rendering="geometricPrecision" shape-rendering="geometricPrecision"
           transform="matrix(1,0,0,1,46,102)" stroke="rgb(225,225,225)">
            <rect x="269.9821" y="-50.9922" clip-path="url(#clipPath2)" width="165.9451" rx="4" ry="4" height="185.8786"
                  stroke="none"/>
            <rect x="269.9821" y="-50.9922" clip-path="url(#clipPath2)" fill="rgb(235,235,235)" width="165.9451"
                  height="20.9922" stroke="none"/>
        </g>
        <g font-size="15px" stroke-linecap="butt" transform="matrix(1,0,0,1,46,102)" text-rendering="geometricPrecision"
           font-family="'Courier New'" shape-rendering="geometricPrecision" font-weight="bold" stroke-miterlimit="1.45">
            <text x="280.9429" xml:space="preserve" y="-36.5044" clip-path="url(#clipPath2)" stroke="none">Version Database</text>
        </g>
        <g text-rendering="geometricPrecision" stroke-miterlimit="1.45" stroke-width="2"
           shape-rendering="geometricPrecision" transform="matrix(1,0,0,1,46,102)" stroke-linecap="butt">
            <rect x="269.9821" y="-50.9922" clip-path="url(#clipPath2)" fill="none" width="165.9451" rx="4" ry="4"
                  height="185.8786"/>
        </g>
        <g fill="aqua" text-rendering="geometricPrecision" shape-rendering="geometricPrecision"
           transform="matrix(1,0,0,1,46,102)" stroke="aqua">
            <rect x="309.4301" y="-15" clip-path="url(#clipPath2)" width="87.0491" rx="4" ry="4" height="30"
                  stroke="none"/>
        </g>
        <g text-rendering="geometricPrecision" stroke-miterlimit="1.45" shape-rendering="geometricPrecision"
           transform="matrix(1,0,0,1,46,102)" stroke-linecap="butt">
            <rect x="309.4301" y="-15" clip-path="url(#clipPath2)" fill="none" width="87.0491" rx="4" ry="4"
                  height="30"/>
            <text x="320.5494" y="3.1934" clip-path="url(#clipPath2)" font-family="'Courier New'" stroke="none"
                  font-weight="bold" xml:space="preserve">Version 3</text>
        </g>
        <g fill="aqua" text-rendering="geometricPrecision" shape-rendering="geometricPrecision"
           transform="matrix(1,0,0,1,46,102)" stroke="aqua">
            <rect x="309.4301" y="37.4432" clip-path="url(#clipPath2)" width="87.0491" rx="4" ry="4" height="30"
                  stroke="none"/>
        </g>
        <g text-rendering="geometricPrecision" stroke-miterlimit="1.45" shape-rendering="geometricPrecision"
           transform="matrix(1,0,0,1,46,102)" stroke-linecap="butt">
            <rect x="309.4301" y="37.4432" clip-path="url(#clipPath2)" fill="none" width="87.0491" rx="4" ry="4"
                  height="30"/>
            <text x="320.5494" y="55.6366" clip-path="url(#clipPath2)" font-family="'Courier New'" stroke="none"
                  font-weight="bold" xml:space="preserve">Version 2</text>
        </g>
        <g fill="aqua" text-rendering="geometricPrecision" shape-rendering="geometricPrecision"
           transform="matrix(1,0,0,1,46,102)" stroke="aqua">
            <rect x="309.4301" y="89.8864" clip-path="url(#clipPath2)" width="87.0491" rx="4" ry="4" height="30"
                  stroke="none"/>
        </g>
        <g text-rendering="geometricPrecision" stroke-miterlimit="1.45" shape-rendering="geometricPrecision"
           transform="matrix(1,0,0,1,46,102)" stroke-linecap="butt">
            <rect x="309.4301" y="89.8864" clip-path="url(#clipPath2)" fill="none" width="87.0491" rx="4" ry="4"
                  height="30"/>
            <text x="320.5494" y="108.0798" clip-path="url(#clipPath2)" font-family="'Courier New'" stroke="none"
                  font-weight="bold" xml:space="preserve">Version 1</text>
            <path fill="none" d="M352.9547 37.3994 L352.9547 15" clip-path="url(#clipPath2)"/>
            <path fill="none" d="M352.9547 89.8426 L352.9547 67.4432" clip-path="url(#clipPath2)"/>
        </g>
    </g>
</svg>
